SplineFontDB: 3.0
FontName: OswaldStencil-Bold
FullName: Oswald Stencil Bold
FamilyName: Oswald Stencil
Weight: Bold
Copyright: Copyright (c) 2011 by vernon adams. All rights reserved.
Version: 001.001
ItalicAngle: 0
UnderlinePosition: -92
UnderlineWidth: 90
Ascent: 1638
Descent: 410
sfntRevision: 0x00010000
LayerCount: 2
Layer: 0 0 "Back"  1
Layer: 1 0 "Fore"  0
NeedsXUIDChange: 1
XUID: [1021 14 500265001 936558]
FSType: 0
OS2Version: 3
OS2_WeightWidthSlopeOnly: 0
OS2_UseTypoMetrics: 1
CreationTime: 1321485720
ModificationTime: 1333187499
PfmFamily: 17
TTFWeight: 700
TTFWidth: 5
LineGap: 55
VLineGap: 0
Panose: 2 0 5 6 0 0 0 2 0 4
OS2TypoAscent: 3789
OS2TypoAOffset: 1
OS2TypoDescent: -972
OS2TypoDOffset: 1
OS2TypoLinegap: 121
OS2WinAscent: 3554
OS2WinAOffset: 1
OS2WinDescent: 898
OS2WinDOffset: 1
HheadAscent: 1
HheadAOffset: 1
HheadDescent: -3
HheadDOffset: 1
OS2SubXSize: 1331
OS2SubYSize: 1228
OS2SubXOff: 0
OS2SubYOff: 153
OS2SupXSize: 1331
OS2SupYSize: 1228
OS2SupXOff: 0
OS2SupYOff: 716
OS2StrikeYSize: 90
OS2StrikeYPos: 768
OS2Vendor: 'newt'
OS2CodePages: 20000091.00000000
OS2UnicodeRanges: 00000003.00000000.00000000.00000000
Lookup: 258 0 0 "'kern' Horizontal Kerning in Latin lookup 0"  {"'kern' Horizontal Kerning in Latin lookup 0 subtable"  } ['kern' ('latn' <'dflt' > ) ]
DEI: 91125
LangName: 1033 "" "" "" "newt: Oswald Stencil Bold: " "OswaldStencil-Bold" "1.000" "" "Oswald Stencil Bold is a trademark of vernon adams." "vernon adams" "vernon adams" "Copyright (c) 2011 by vernon adams. All rights reserved." 
Encoding: Google-webfonts-latin
Compacted: 1
UnicodeInterp: none
NameList: Adobe Glyph List
DisplaySize: -48
AntiAlias: 1
FitToEm: 1
WinInfo: 0 17 10
BeginPrivate: 4
BlueValues 27 [-49 0 1308 1325 1817 1879]
OtherBlues 11 [-387 -385]
BlueScale 10 0.00988237
BlueShift 1 0
EndPrivate
BeginChars: 65540 386

StartChar: .notdef
Encoding: 65536 -1 0
Width: 757
Flags: W
LayerCount: 2
Fore
SplineSet
232 106 m 1
 528 106 l 1
 528 1262 l 1
 232 1262 l 1
 232 106 l 1
105 -2 m 1
 105 1368 l 1
 656 1368 l 1
 656 -2 l 1
 105 -2 l 1
EndSplineSet
EndChar

StartChar: exclam
Encoding: 23 33 2
Width: 504
Flags: W
LayerCount: 2
Fore
SplineSet
199 445 m 1
 100 1781 l 1
 410 1781 l 1
 301 445 l 1
 199 445 l 1
105 0 m 1
 105 286 l 1
 397 286 l 1
 397 0 l 1
 105 0 l 1
EndSplineSet
EndChar

StartChar: quotedbl
Encoding: 24 34 3
Width: 744
Flags: W
LayerCount: 2
Fore
SplineSet
135 1248 m 1
 54 1782 l 1
 320 1782 l 1
 314 1747 313 1282 308 1248 c 1
 135 1248 l 1
431 1248 m 1
 431 1782 l 1
 690 1782 l 1
 684 1747 605 1282 599 1248 c 1
 431 1248 l 1
EndSplineSet
EndChar

StartChar: numbersign
Encoding: 25 35 4
Width: 1121
Flags: W
LayerCount: 2
Fore
SplineSet
123 0 m 1
 233 626 l 1
 88 626 l 1
 88 852 l 1
 268 852 l 1
 296 994 l 1
 99 994 l 1
 99 1217 l 1
 332 1217 l 1
 430 1783 l 1
 625 1783 l 1
 526 1217 l 1
 675 1217 l 1
 774 1783 l 1
 968 1783 l 1
 869 1217 l 1
 1009 1217 l 1
 1009 994 l 1
 833 994 l 1
 806 852 l 1
 998 852 l 1
 998 626 l 1
 769 626 l 1
 659 0 l 1
 466 0 l 1
 576 626 l 1
 425 626 l 1
 315 0 l 1
 123 0 l 1
462 852 m 1
 612 852 l 1
 639 994 l 1
 489 994 l 1
 462 852 l 1
EndSplineSet
EndChar

StartChar: dollar
Encoding: 26 36 5
Width: 1101
Flags: W
LayerCount: 2
Fore
SplineSet
510 1459 m 1
 510 1890 l 1
 607 1890 l 1
 607 1704 l 1
 837 1690 1009 1527 1018 1300 c 0
 1019 1299 1018 1261 1019 1260 c 1
 701 1212 l 1
 702 1226 703 1248 703 1271 c 1
 697 1363 662 1463 553 1463 c 0
 538 1463 523 1461 510 1459 c 1
607 302 m 1
 607 -108 l 1
 510 -108 l 1
 510 56 l 1
 218 83 94 290 86 541 c 1
 399 603 l 1
 399 498 413 299 574 299 c 0
 586 299 597 300 607 302 c 1
657 60 m 1
 657 318 l 1
 699 342 714 389 714 448 c 0
 714 568 611 644 499 732 c 2
 346 852 l 2
 214 956 86 1075 86 1275 c 0
 86 1511 236 1661 460 1697 c 1
 460 1440 l 1
 417 1414 397 1367 397 1314 c 0
 397 1213 460 1147 546 1081 c 2
 705 959 l 2
 896 813 1025 695 1025 456 c 0
 1025 237 866 89 657 60 c 1
EndSplineSet
EndChar

StartChar: percent
Encoding: 27 37 6
Width: 1866
Flags: W
LayerCount: 2
Fore
SplineSet
561 0 m 1
 1132 1810 l 1
 1299 1810 l 1
 727 0 l 1
 561 0 l 1
1459 794 m 1
 1459 981 l 1
 1699 969 1784 791 1784 525 c 2
 1784 465 l 2
 1784 204 1701 8 1459 -5 c 1
 1458 181 l 1
 1538 201 1549 318 1549 466 c 2
 1549 521 l 2
 1549 669 1541 776 1459 794 c 1
1408 181 m 1
 1408 -5 l 1
 1166 8 1084 204 1084 465 c 2
 1084 525 l 2
 1084 790 1167 969 1408 981 c 1
 1409 795 l 1
 1327 778 1316 670 1316 522 c 2
 1316 466 l 2
 1316 318 1329 201 1408 181 c 1
459 1596 m 1
 459 1783 l 1
 699 1771 784 1593 784 1327 c 2
 784 1267 l 2
 784 1006 701 810 459 797 c 1
 458 983 l 1
 538 1003 549 1120 549 1268 c 2
 549 1323 l 2
 549 1471 541 1578 459 1596 c 1
408 983 m 1
 408 797 l 1
 166 810 84 1006 84 1267 c 2
 84 1327 l 2
 84 1592 167 1771 408 1783 c 1
 409 1597 l 1
 327 1580 316 1472 316 1324 c 2
 316 1268 l 2
 316 1120 329 1003 408 983 c 1
EndSplineSet
EndChar

StartChar: ampersand
Encoding: 28 38 7
Width: 1177
Flags: W
LayerCount: 2
Fore
SplineSet
306 892 m 2
 476 1102 l 2
 559 1205 635 1310 635 1432 c 0
 635 1499 610 1576 538 1590 c 1
 538 1812 l 1
 745 1796 882 1656 882 1444 c 0
 882 1224 742 1054 589 863 c 2
 420 652 l 2
 366 584 328 476 328 381 c 0
 328 297 357 223 430 196 c 1
 430 -29 l 1
 190 -21 66 152 66 369 c 0
 66 566 176 731 306 892 c 2
797 124 m 1
 717 27 603 -24 478 -29 c 1
 478 194 l 1
 542 199 593 243 636 296 c 2
 984 725 l 1
 1152 558 l 1
 953 314 l 1
 1098 126 l 1
 917 -35 l 1
 797 124 l 1
453 1155 m 1
 282 944 l 1
 211 1093 135 1289 135 1420 c 0
 135 1639 263 1810 489 1814 c 1
 489 1589 l 1
 417 1572 404 1478 404 1418 c 0
 404 1327 417 1247 453 1155 c 1
781 554 m 1
 608 341 l 1
 553 430 478 549 446 606 c 1
 618 816 l 1
 781 554 l 1
EndSplineSet
EndChar

StartChar: parenleft
Encoding: 30 40 9
Width: 660
Flags: W
LayerCount: 2
Fore
SplineSet
616 138 m 1
 616 -64 l 1
 159 -64 147 492 147 848 c 0
 147 1182 107 1880 616 1880 c 1
 616 1678 l 1
 423 1678 402 1329 402 1084 c 0
 402 1017 404 958 404 917 c 0
 404 873 402 806 402 731 c 0
 402 481 424 138 616 138 c 1
EndSplineSet
EndChar

StartChar: parenright
Encoding: 31 41 10
Width: 662
Flags: W
LayerCount: 2
Fore
SplineSet
89 -64 m 1
 89 138 l 1
 281 138 303 481 303 731 c 0
 303 806 301 873 301 917 c 0
 301 957 302 1014 302 1079 c 0
 302 1325 282 1678 89 1678 c 1
 89 1880 l 1
 548 1880 559 1315 559 959 c 0
 559 623 593 -64 89 -64 c 1
EndSplineSet
EndChar

StartChar: asterisk
Encoding: 32 42 11
Width: 879
Flags: W
LayerCount: 2
Fore
SplineSet
605 870 m 1
 471 1104 l 1
 327 870 l 1
 156 972 l 1
 320 1206 l 1
 71 1302 l 1
 137 1475 l 1
 366 1356 l 1
 341 1629 l 1
 591 1629 l 1
 566 1356 l 1
 795 1475 l 1
 861 1302 l 1
 612 1206 l 1
 776 972 l 1
 605 870 l 1
EndSplineSet
EndChar

StartChar: plus
Encoding: 33 43 12
Width: 737
Flags: W
LayerCount: 2
Fore
SplineSet
57 607 m 1
 57 755 l 1
 233 755 l 1
 233 931 l 1
 419 931 l 1
 419 755 l 1
 598 755 l 1
 598 607 l 1
 419 607 l 1
 419 431 l 1
 233 431 l 1
 233 607 l 1
 57 607 l 1
EndSplineSet
EndChar

StartChar: comma
Encoding: 34 44 13
Width: 451
Flags: W
LayerCount: 2
Fore
SplineSet
155 -247 m 1
 117 -105 l 1
 194 -98 203 -77 204 -1 c 1
 90 -1 l 1
 90 286 l 1
 382 286 l 1
 382 235 382 186 382 140 c 0
 382 -87 368 -249 193 -249 c 0
 181 -249 168 -249 155 -247 c 1
EndSplineSet
EndChar

StartChar: hyphen
Encoding: 35 45 14
Width: 452
Flags: W
LayerCount: 2
Fore
SplineSet
29 452 m 1
 29 651 l 1
 423 651 l 1
 423 452 l 1
 29 452 l 1
EndSplineSet
EndChar

StartChar: period
Encoding: 36 46 15
Width: 494
Flags: W
LayerCount: 2
Fore
SplineSet
103 0 m 1
 103 286 l 1
 396 286 l 1
 396 0 l 1
 103 0 l 1
EndSplineSet
EndChar

StartChar: slash
Encoding: 37 47 16
Width: 841
Flags: W
LayerCount: 2
Fore
SplineSet
64 0 m 1
 636 1810 l 1
 808 1810 l 1
 235 0 l 1
 64 0 l 1
EndSplineSet
EndChar

StartChar: zero
Encoding: 38 48 17
Width: 1125
Flags: W
LayerCount: 2
Fore
SplineSet
542 232 m 1
 542 -33 l 1
 226 -24 95 227 95 522 c 2
 95 1258 l 2
 95 1559 221 1805 542 1814 c 1
 542 1548 l 1
 416 1533 402 1376 402 1266 c 2
 402 514 l 2
 402 406 422 247 542 232 c 1
592 -32 m 1
 592 234 l 1
 705 256 726 408 726 514 c 2
 726 1266 l 2
 726 1374 709 1526 592 1547 c 1
 592 1813 l 1
 906 1800 1031 1556 1031 1258 c 2
 1031 522 l 2
 1031 232 897 -17 592 -32 c 1
EndSplineSet
EndChar

StartChar: one
Encoding: 39 49 18
Width: 644
Flags: W
LayerCount: 2
Fore
SplineSet
177 1671 m 1
 178 1353 l 1
 2 1336 l 1
 2 1574 l 1
 63 1600 124 1629 177 1671 c 1
227 0 m 1
 226 1694 l 1
 256 1716 275 1743 298 1783 c 1
 528 1783 l 1
 528 0 l 1
 227 0 l 1
EndSplineSet
EndChar

StartChar: two
Encoding: 40 50 19
Width: 1045
Flags: W
LayerCount: 2
Fore
SplineSet
471 332 m 1
 226 0 l 1
 47 0 l 1
 47 219 l 1
 515 904 l 2
 596 1022 684 1176 684 1324 c 0
 684 1422 647 1534 553 1550 c 1
 553 1815 l 1
 835 1805 987 1614 987 1324 c 0
 987 1129 890 943 778 786 c 1
 701 667 546 441 471 332 c 1
504 1815 m 1
 504 1550 l 1
 361 1526 366 1293 366 1175 c 1
 64 1175 l 1
 64 1268 l 2
 64 1578 186 1804 504 1815 c 1
289 0 m 1
 507 296 l 1
 982 296 l 1
 982 0 l 1
 289 0 l 1
EndSplineSet
EndChar

StartChar: three
Encoding: 41 51 20
Width: 1065
Flags: W
LayerCount: 2
Fore
SplineSet
506 1815 m 1
 506 1550 l 1
 386 1528 375 1361 373 1238 c 1
 70 1238 l 1
 70 1333 l 2
 70 1611 216 1803 506 1815 c 1
506 234 m 1
 506 -33 l 1
 171 -22 76 206 70 493 c 1
 70 546 l 1
 373 546 l 1
 374 416 384 255 506 234 c 1
556 -33 m 1
 556 233 l 1
 676 246 690 381 690 514 c 0
 690 688 616 802 441 802 c 1
 441 1103 l 1
 601 1103 690 1145 690 1333 c 0
 690 1448 661 1539 556 1551 c 1
 556 1816 l 1
 846 1807 996 1611 996 1332 c 0
 996 1171 927 1019 802 950 c 1
 930 864 996 708 996 515 c 0
 996 208 880 -22 556 -33 c 1
EndSplineSet
EndChar

StartChar: four
Encoding: 42 52 21
Width: 1056
Flags: W
LayerCount: 2
Fore
SplineSet
558 1176 m 1
 773 1782 l 1
 860 1782 l 1
 860 0 l 1
 558 0 l 1
 558 1176 l 1
508 696 m 1
 508 453 l 1
 60 453 l 1
 60 696 l 1
 490 1782 l 1
 720 1782 l 1
 334 696 l 1
 508 696 l 1
910 453 m 1
 910 696 l 1
 1028 696 l 1
 1028 453 l 1
 910 453 l 1
EndSplineSet
EndChar

StartChar: five
Encoding: 43 53 22
Width: 1093
Flags: W
LayerCount: 2
Fore
SplineSet
473 1490 m 1
 473 1782 l 1
 958 1782 l 1
 958 1490 l 1
 473 1490 l 1
473 869 m 1
 473 1123 l 1
 519 1147 569 1161 623 1161 c 0
 938 1161 1026 899 1026 614 c 0
 1026 292 943 -23 583 -33 c 1
 583 226 l 1
 722 251 728 462 728 617 c 0
 728 759 706 911 571 911 c 0
 535 911 501 894 473 869 c 1
146 1782 m 1
 423 1782 l 1
 423 771 l 1
 146 771 l 1
 146 1782 l 1
533 224 m 1
 533 -32 l 1
 206 -15 114 230 114 540 c 1
 417 542 l 1
 417 357 431 237 533 224 c 1
EndSplineSet
EndChar

StartChar: six
Encoding: 44 54 23
Width: 1090
Flags: W
LayerCount: 2
Fore
SplineSet
401 1196 m 2
 401 523 l 2
 401 391 427 252 534 234 c 1
 534 -29 l 1
 220 -16 95 253 95 537 c 2
 95 1203 l 2
 95 1492 191 1800 534 1814 c 1
 534 1549 l 1
 421 1530 401 1349 401 1196 c 2
451 817 m 1
 451 1071 l 1
 501 1092 558 1102 615 1102 c 0
 937 1102 1026 854 1026 566 c 0
 1026 270 906 -13 584 -28 c 1
 584 234 l 1
 709 253 721 430 721 558 c 0
 721 699 701 848 560 848 c 0
 521 848 482 836 451 817 c 1
584 1548 m 1
 584 1814 l 1
 862 1801 994 1584 994 1316 c 2
 994 1285 l 1
 699 1285 l 1
 698 1408 677 1527 584 1548 c 1
EndSplineSet
EndChar

StartChar: seven
Encoding: 45 55 24
Width: 805
Flags: W
LayerCount: 2
Fore
SplineSet
483 1782 m 1
 427 1516 l 1
 31 1516 l 1
 31 1782 l 1
 483 1782 l 1
154 0 m 1
 534 1782 l 1
 782 1782 l 1
 782 1617 l 1
 427 0 l 1
 154 0 l 1
EndSplineSet
EndChar

StartChar: eight
Encoding: 46 56 25
Width: 1094
Flags: W
LayerCount: 2
Fore
SplineSet
530 217 m 1
 530 -30 l 1
 202 -20 91 202 91 513 c 0
 91 708 136 850 263 943 c 1
 158 1030 108 1173 108 1332 c 0
 108 1609 241 1806 530 1816 c 1
 530 1573 l 1
 436 1558 412 1453 412 1356 c 0
 412 1239 425 1080 530 1055 c 1
 530 811 l 1
 410 787 388 622 388 497 c 0
 388 364 404 231 530 217 c 1
580 -30 m 1
 580 217 l 1
 705 232 723 365 723 497 c 0
 723 622 703 788 580 811 c 1
 580 1055 l 1
 687 1078 699 1239 699 1356 c 0
 699 1451 676 1558 580 1573 c 1
 580 1816 l 1
 870 1806 1001 1609 1001 1332 c 0
 1001 1173 954 1030 847 943 c 1
 973 850 1021 709 1021 513 c 0
 1021 202 908 -19 580 -30 c 1
EndSplineSet
EndChar

StartChar: nine
Encoding: 47 57 26
Width: 1108
Flags: W
LayerCount: 2
Fore
SplineSet
713 1259 m 2
 713 1390 687 1527 583 1548 c 1
 583 1814 l 1
 893 1798 1018 1512 1018 1216 c 2
 1018 610 l 2
 1018 307 925 -11 583 -28 c 1
 583 234 l 1
 707 259 713 487 713 623 c 2
 713 1259 l 2
663 963 m 1
 663 709 l 1
 614 691 561 682 504 682 c 0
 178 682 87 930 87 1217 c 0
 87 1513 209 1802 533 1815 c 1
 533 1550 l 1
 408 1533 393 1361 393 1230 c 0
 393 1092 410 932 552 932 c 0
 590 932 631 944 663 963 c 1
533 234 m 1
 533 -29 l 1
 244 -19 118 197 111 468 c 1
 111 497 l 1
 407 497 l 1
 409 372 427 250 533 234 c 1
EndSplineSet
EndChar

StartChar: colon
Encoding: 48 58 27
Width: 497
Flags: W
LayerCount: 2
Fore
SplineSet
105 878 m 1
 105 1164 l 1
 395 1164 l 1
 395 878 l 1
 105 878 l 1
105 179 m 1
 105 463 l 1
 395 463 l 1
 395 179 l 1
 105 179 l 1
EndSplineSet
EndChar

StartChar: semicolon
Encoding: 49 59 28
Width: 490
Flags: W
LayerCount: 2
Fore
SplineSet
95 878 m 1
 95 1164 l 1
 386 1164 l 1
 386 878 l 1
 95 878 l 1
158 -74 m 1
 121 67 l 1
 198 75 207 96 208 172 c 1
 94 172 l 1
 94 459 l 1
 386 459 l 1
 386 411 386 365 386 322 c 0
 386 89 374 -76 197 -76 c 0
 185 -76 172 -76 158 -74 c 1
EndSplineSet
EndChar

StartChar: less
Encoding: 50 60 29
Width: 834
Flags: W
LayerCount: 2
Fore
SplineSet
74 518 m 1
 74 779 l 1
 727 1235 l 1
 727 971 l 1
 275 650 l 1
 435 534 567 441 727 326 c 1
 727 62 l 1
 727 62 106 495 74 518 c 1
EndSplineSet
EndChar

StartChar: equal
Encoding: 51 61 30
Width: 759
Flags: W
LayerCount: 2
Fore
SplineSet
83 581 m 1
 83 780 l 1
 671 780 l 1
 671 581 l 1
 83 581 l 1
83 257 m 1
 83 455 l 1
 671 455 l 1
 671 257 l 1
 83 257 l 1
EndSplineSet
EndChar

StartChar: greater
Encoding: 52 62 31
Width: 834
Flags: W
LayerCount: 2
Fore
SplineSet
112 62 m 1
 112 326 l 1
 563 650 l 1
 518 682 157 939 112 971 c 1
 112 1236 l 1
 112 1236 732 801 764 779 c 1
 764 518 l 1
 112 62 l 1
EndSplineSet
EndChar

StartChar: question
Encoding: 53 63 32
Width: 950
Flags: W
LayerCount: 2
Fore
SplineSet
449 1815 m 1
 449 1558 l 1
 370 1544 325 1468 325 1368 c 0
 325 1337 330 1271 339 1240 c 1
 66 1194 l 1
 51 1250 43 1338 43 1389 c 0
 43 1632 182 1805 449 1815 c 1
499 1558 m 1
 499 1815 l 1
 756 1805 920 1650 920 1368 c 0
 920 1053 558 834 558 605 c 2
 558 534 l 1
 268 534 l 1
 268 631 l 2
 268 930 628 1100 628 1383 c 0
 628 1492 576 1548 499 1558 c 1
263 0 m 1
 263 292 l 1
 563 292 l 1
 563 0 l 1
 263 0 l 1
EndSplineSet
EndChar

StartChar: at
Encoding: 54 64 33
Width: 1662
Flags: W
LayerCount: 2
Fore
SplineSet
1253 330 m 1
 1253 547 l 1
 1319 576 1335 715 1335 811 c 0
 1335 1179 1222 1401 905 1427 c 1
 905 1628 l 1
 1356 1602 1592 1293 1592 813 c 0
 1592 560 1482 343 1253 330 c 1
1203 544 m 1
 1203 329 l 1
 1139 330 1046 336 978 394 c 1
 905 576 l 1
 905 1241 l 1
 1160 1241 l 1
 1160 658 l 2
 1160 651 1160 644 1160 636 c 0
 1160 599 1163 554 1203 544 c 1
885 110 m 1
 885 -91 l 1
 324 -75 81 221 81 808 c 0
 81 1305 374 1630 854 1630 c 1
 854 1430 l 1
 537 1430 337 1205 337 807 c 0
 337 370 491 128 885 110 c 1
855 1226 m 1
 855 1044 l 1
 851 1045 847 1045 843 1045 c 0
 719 1045 717 866 717 754 c 0
 717 654 732 542 823 542 c 0
 834 542 844 544 854 547 c 1
 935 355 l 1
 886 335 829 329 780 329 c 0
 557 329 461 557 461 743 c 0
 461 965 534 1249 762 1249 c 0
 792 1249 827 1241 855 1226 c 1
EndSplineSet
EndChar

StartChar: A
Encoding: 55 65 34
Width: 1100
Flags: W
LayerCount: 2
Fore
SplineSet
572 1135 m 1
 455 1782 l 1
 697 1782 l 1
 1075 0 l 1
 770 0 l 1
 572 1135 l 1
403 1782 m 1
 524 1114 l 1
 438 584 l 1
 620 584 l 1
 647 399 l 1
 415 399 l 1
 338 0 l 1
 25 0 l 1
 403 1782 l 1
EndSplineSet
EndChar

StartChar: B
Encoding: 56 66 35
Width: 1115
Flags: W
LayerCount: 2
Fore
SplineSet
482 856 m 1
 482 1067 l 1
 533 1067 l 2
 675 1067 708 1188 708 1330 c 0
 708 1537 630 1567 492 1567 c 2
 482 1567 l 1
 482 1782 l 1
 486 1782 l 2
 794 1782 1002 1674 1002 1324 c 0
 1002 1144 917 1033 749 973 c 1
 969 914 1047 734 1047 527 c 0
 1047 184 900 0 550 0 c 2
 482 0 l 1
 482 226 l 1
 520 226 l 2
 709 226 739 338 739 546 c 0
 739 723 693 856 521 856 c 2
 482 856 l 1
432 0 m 1
 116 0 l 1
 116 1782 l 1
 432 1782 l 1
 432 0 l 1
EndSplineSet
EndChar

StartChar: C
Encoding: 57 67 36
Width: 1152
Flags: W
LayerCount: 2
Fore
SplineSet
620 -33 m 1
 620 214 l 1
 747 232 768 388 768 535 c 2
 768 705 l 1
 1077 705 l 1
 1077 568 l 1
 1073 259 974 -20 620 -33 c 1
620 1567 m 1
 620 1815 l 1
 959 1803 1077 1558 1077 1232 c 2
 1077 1096 l 1
 767 1096 l 1
 767 1248 l 2
 767 1390 749 1549 620 1567 c 1
570 1815 m 1
 570 1568 l 1
 434 1553 408 1407 408 1280 c 2
 408 501 l 2
 408 374 434 228 570 213 c 1
 570 -33 l 1
 203 -21 92 251 92 578 c 2
 92 1202 l 2
 92 1536 204 1803 570 1815 c 1
EndSplineSet
EndChar

StartChar: D
Encoding: 58 68 37
Width: 1148
Flags: W
LayerCount: 2
Fore
SplineSet
482 0 m 1
 482 225 l 1
 491 225 l 2
 686 225 739 270 739 437 c 2
 739 1362 l 2
 739 1504 665 1555 496 1556 c 1
 482 1556 l 1
 482 1782 l 1
 494 1782 l 2
 943 1782 1056 1596 1056 1215 c 2
 1056 600 l 2
 1056 212 970 0 491 0 c 2
 482 0 l 1
432 0 m 1
 116 0 l 1
 116 1782 l 1
 432 1782 l 1
 432 0 l 1
EndSplineSet
EndChar

StartChar: E
Encoding: 59 69 38
Width: 871
Flags: W
LayerCount: 2
Fore
SplineSet
432 0 m 1
 116 0 l 1
 116 1782 l 1
 432 1782 l 1
 432 0 l 1
482 0 m 1
 482 221 l 1
 833 221 l 1
 833 0 l 1
 482 0 l 1
482 1561 m 1
 482 1782 l 1
 833 1782 l 1
 833 1561 l 1
 482 1561 l 1
482 810 m 1
 482 1035 l 1
 717 1035 l 1
 717 810 l 1
 482 810 l 1
EndSplineSet
EndChar

StartChar: F
Encoding: 60 70 39
Width: 842
Flags: W
LayerCount: 2
Fore
SplineSet
432 0 m 1
 116 0 l 1
 116 1782 l 1
 432 1782 l 1
 432 0 l 1
482 1561 m 1
 482 1782 l 1
 833 1782 l 1
 833 1561 l 1
 482 1561 l 1
482 810 m 1
 482 1035 l 1
 717 1035 l 1
 717 810 l 1
 482 810 l 1
EndSplineSet
EndChar

StartChar: G
Encoding: 61 71 40
Width: 1211
Flags: W
LayerCount: 2
Fore
SplineSet
628 1568 m 1
 628 1815 l 1
 982 1805 1099 1552 1099 1221 c 2
 1099 1136 l 1
 794 1136 l 1
 794 1236 l 2
 794 1382 781 1552 628 1568 c 1
623 -25 m 1
 623 213 l 1
 767 225 794 378 794 497 c 2
 794 674 l 1
 665 674 l 1
 665 903 l 1
 1110 903 l 1
 1110 0 l 1
 901 0 l 1
 855 135 l 1
 809 54 720 -4 623 -25 c 1
574 214 m 1
 574 -32 l 1
 565 -33 557 -33 548 -33 c 0
 192 -33 92 292 92 545 c 2
 92 1200 l 2
 92 1533 206 1801 578 1814 c 1
 578 1567 l 1
 440 1550 408 1408 408 1285 c 2
 408 490 l 2
 408 370 436 232 574 214 c 1
EndSplineSet
EndChar

StartChar: H
Encoding: 62 72 41
Width: 1187
Flags: W
LayerCount: 2
Fore
SplineSet
753 1782 m 1
 1072 1782 l 1
 1072 0 l 1
 753 0 l 1
 753 810 l 1
 482 810 l 1
 482 1012 l 1
 753 1012 l 1
 753 1782 l 1
433 1782 m 1
 432 0 l 1
 116 0 l 1
 116 1782 l 1
 433 1782 l 1
EndSplineSet
EndChar

StartChar: I
Encoding: 63 73 42
Width: 548
Flags: W
LayerCount: 2
Fore
SplineSet
115 0 m 1
 115 1782 l 1
 432 1782 l 1
 432 0 l 1
 115 0 l 1
EndSplineSet
EndChar

StartChar: J
Encoding: 64 74 43
Width: 612
Flags: W
LayerCount: 2
Fore
SplineSet
3 -26 m 1
 3 198 l 1
 149 198 181 226 181 429 c 2
 181 1782 l 1
 497 1782 l 1
 497 427 l 2
 497 123 440 -26 99 -26 c 2
 3 -26 l 1
EndSplineSet
EndChar

StartChar: K
Encoding: 65 75 44
Width: 1147
Flags: W
LayerCount: 2
Fore
SplineSet
482 857 m 1
 482 1094 l 1
 754 1782 l 1
 1105 1782 l 1
 741 981 l 1
 1144 0 l 1
 815 0 l 1
 482 857 l 1
432 0 m 1
 116 0 l 1
 116 1782 l 1
 432 1782 l 1
 432 0 l 1
EndSplineSet
EndChar

StartChar: L
Encoding: 66 76 45
Width: 837
Flags: W
LayerCount: 2
Fore
SplineSet
432 0 m 1
 116 0 l 1
 116 1782 l 1
 432 1782 l 1
 432 0 l 1
482 0 m 1
 482 221 l 1
 818 221 l 1
 818 0 l 1
 482 0 l 1
EndSplineSet
EndChar

StartChar: M
Encoding: 67 77 46
Width: 1518
Flags: W
LayerCount: 2
Fore
SplineSet
429 1781 m 1
 870 0 l 1
 655 0 l 1
 411 871 l 1
 411 1781 l 1
 429 1781 l 1
887 141 m 1
 784 562 l 1
 1086 1781 l 1
 1107 1781 l 1
 1107 871 l 1
 887 141 l 1
361 0 m 1
 116 0 l 1
 116 1782 l 1
 361 1782 l 1
 361 0 l 1
1402 0 m 1
 1157 0 l 1
 1157 1782 l 1
 1402 1782 l 1
 1402 0 l 1
EndSplineSet
EndChar

StartChar: N
Encoding: 68 78 47
Width: 1183
Flags: W
LayerCount: 2
Fore
SplineSet
116 1783 m 1
 345 1783 l 1
 388 1679 l 1
 388 0 l 1
 116 0 l 1
 116 1783 l 1
846 0 m 1
 804 105 l 1
 804 1783 l 1
 1067 1783 l 1
 1067 0 l 1
 846 0 l 1
438 949 m 1
 438 1558 l 1
 754 868 l 1
 754 231 l 1
 438 949 l 1
EndSplineSet
EndChar

StartChar: O
Encoding: 69 79 48
Width: 1198
Flags: W
LayerCount: 2
Fore
SplineSet
573 1815 m 1
 573 1568 l 1
 437 1553 408 1407 408 1280 c 2
 408 500 l 2
 408 373 436 228 573 213 c 1
 573 -33 l 1
 209 -22 92 244 92 571 c 2
 92 1202 l 2
 92 1536 207 1803 573 1815 c 1
623 1568 m 1
 623 1815 l 1
 989 1803 1106 1537 1106 1202 c 2
 1106 578 l 2
 1106 251 990 -21 623 -33 c 1
 623 213 l 1
 761 228 789 371 789 500 c 2
 789 1280 l 2
 789 1408 760 1553 623 1568 c 1
EndSplineSet
EndChar

StartChar: P
Encoding: 70 80 49
Width: 1028
Flags: W
LayerCount: 2
Fore
SplineSet
432 1782 m 1
 432 0 l 1
 116 0 l 1
 116 1782 l 1
 432 1782 l 1
482 1554 m 1
 482 1782 l 1
 548 1782 l 2
 868 1782 987 1585 987 1283 c 0
 987 908 817 770 494 769 c 1
 482 769 l 1
 482 996 l 1
 508 996 l 2
 670 996 685 1089 685 1288 c 0
 685 1451 667 1554 432 1554 c 2
 482 1554 l 1
EndSplineSet
EndChar

StartChar: Q
Encoding: 71 81 50
Width: 1205
Flags: W
LayerCount: 2
Fore
SplineSet
575 214 m 1
 575 -35 l 1
 230 -24 92 230 92 571 c 2
 92 1202 l 2
 92 1537 209 1803 575 1815 c 1
 575 1567 l 1
 440 1550 408 1407 408 1280 c 2
 408 501 l 2
 408 373 440 231 575 214 c 1
625 -35 m 1
 625 213 l 1
 770 224 795 369 795 501 c 2
 795 1280 l 2
 795 1410 765 1555 625 1568 c 1
 625 1815 l 1
 995 1806 1111 1539 1111 1202 c 2
 1111 578 l 2
 1111 376 1061 172 900 46 c 1
 937 -18 1052 -29 1084 -32 c 1
 1084 -229 l 1
 868 -225 767 -117 705 -27 c 1
 679 -31 651 -34 625 -35 c 1
EndSplineSet
EndChar

StartChar: R
Encoding: 72 82 51
Width: 1119
Flags: W
LayerCount: 2
Fore
SplineSet
482 831 m 1
 482 1031 l 1
 581 1031 l 2
 716 1031 739 1205 739 1293 c 0
 739 1383 719 1548 595 1548 c 2
 482 1548 l 1
 482 1782 l 1
 526 1782 l 2
 863 1782 1054 1640 1054 1315 c 0
 1054 1153 1045 969 830 874 c 1
 1083 0 l 1
 760 0 l 1
 553 831 l 1
 482 831 l 1
432 0 m 1
 116 0 l 1
 116 1782 l 1
 432 1782 l 1
 432 0 l 1
EndSplineSet
EndChar

StartChar: S
Encoding: 73 83 52
Width: 1054
Flags: W
LayerCount: 2
Fore
SplineSet
557 1569 m 1
 557 1816 l 1
 802 1811 985 1622 995 1373 c 1
 995 1336 l 1
 674 1286 l 1
 674 1304 676 1325 676 1346 c 1
 671 1437 642 1546 557 1569 c 1
520 214 m 1
 520 -34 l 1
 217 -18 80 230 62 493 c 1
 379 557 l 1
 384 408 409 244 520 214 c 1
614 1037 m 1
 401 824 l 1
 329 892 l 1
 196 1009 64 1135 64 1365 c 0
 64 1632 243 1799 507 1815 c 1
 507 1572 l 1
 418 1563 375 1487 375 1399 c 0
 375 1278 441 1194 526 1119 c 0
 545 1102 580 1069 614 1037 c 1
437 791 m 1
 649 1002 l 1
 686 969 l 1
 860 808 1001 645 1001 385 c 0
 1001 135 807 -27 570 -35 c 1
 570 209 l 1
 661 215 694 282 694 372 c 0
 694 521 586 653 477 754 c 2
 437 791 l 1
EndSplineSet
EndChar

StartChar: T
Encoding: 74 84 53
Width: 884
Flags: W
LayerCount: 2
Fore
SplineSet
285 1494 m 1
 602 1494 l 1
 602 0 l 1
 285 0 l 1
 285 1494 l 1
5 1544 m 1
 5 1782 l 1
 879 1782 l 1
 879 1544 l 1
 5 1544 l 1
EndSplineSet
EndChar

StartChar: U
Encoding: 75 85 54
Width: 1223
Flags: W
LayerCount: 2
Fore
SplineSet
639 -33 m 1
 639 212 l 1
 794 221 801 348 801 615 c 2
 801 1782 l 1
 1117 1782 l 1
 1117 614 l 2
 1117 277 1053 -24 639 -33 c 1
589 213 m 1
 589 -33 l 1
 177 -22 106 279 106 614 c 2
 106 1782 l 1
 423 1782 l 1
 423 615 l 2
 423 354 443 228 589 213 c 1
EndSplineSet
EndChar

StartChar: V
Encoding: 76 86 55
Width: 1053
Flags: W
LayerCount: 2
Fore
SplineSet
498 747 m 1
 368 0 l 1
 27 1782 l 1
 331 1782 l 1
 498 747 l 1
419 0 m 1
 725 1782 l 1
 1026 1782 l 1
 670 0 l 1
 419 0 l 1
EndSplineSet
EndChar

StartChar: W
Encoding: 77 87 56
Width: 1475
Flags: W
LayerCount: 2
Fore
SplineSet
1185 0 m 1
 1056 850 l 1
 1170 1782 l 1
 1443 1782 l 1
 1185 0 l 1
418 851 m 1
 551 0 l 1
 292 0 l 1
 32 1782 l 1
 305 1782 l 1
 418 851 l 1
900 0 m 1
 622 1782 l 1
 862 1782 l 1
 1003 850 l 1
 1136 0 l 1
 900 0 l 1
591 1649 m 1
 700 964 l 1
 586 97 l 1
 469 852 l 1
 591 1649 l 1
EndSplineSet
EndChar

StartChar: X
Encoding: 78 88 57
Width: 1078
Flags: W
LayerCount: 2
Fore
SplineSet
313 864 m 1
 469 470 l 1
 302 0 l 1
 5 0 l 1
 313 864 l 1
708 0 m 1
 4 1782 l 1
 336 1782 l 1
 1042 0 l 1
 708 0 l 1
724 940 m 1
 564 1341 l 1
 704 1782 l 1
 1007 1782 l 1
 724 940 l 1
EndSplineSet
EndChar

StartChar: Y
Encoding: 79 89 58
Width: 1002
Flags: W
LayerCount: 2
Fore
SplineSet
654 339 m 1
 654 0 l 1
 346 0 l 1
 346 581 l 1
 2 1782 l 1
 293 1782 l 1
 654 339 l 1
654 546 m 1
 529 1052 l 1
 654 1782 l 1
 1000 1782 l 1
 654 546 l 1
EndSplineSet
EndChar

StartChar: Z
Encoding: 80 90 59
Width: 975
Flags: W
LayerCount: 2
Fore
SplineSet
357 0 m 1
 441 221 l 1
 893 221 l 1
 893 0 l 1
 357 0 l 1
611 1782 m 1
 527 1560 l 1
 134 1560 l 1
 134 1782 l 1
 611 1782 l 1
77 219 m 1
 665 1782 l 1
 893 1782 l 1
 893 1572 l 1
 304 0 l 1
 77 0 l 1
 77 219 l 1
EndSplineSet
EndChar

StartChar: bracketleft
Encoding: 81 91 60
Width: 715
Flags: W
LayerCount: 2
Fore
SplineSet
412 1878 m 1
 412 -64 l 1
 155 -64 l 1
 155 1878 l 1
 412 1878 l 1
462 -64 m 1
 462 77 l 1
 653 77 l 1
 653 -64 l 1
 462 -64 l 1
462 1738 m 1
 462 1878 l 1
 653 1878 l 1
 653 1738 l 1
 462 1738 l 1
EndSplineSet
EndChar

StartChar: backslash
Encoding: 82 92 61
Width: 631
Flags: W
LayerCount: 2
Fore
SplineSet
327 0 m 1
 50 1816 l 1
 306 1816 l 1
 583 0 l 1
 327 0 l 1
EndSplineSet
EndChar

StartChar: bracketright
Encoding: 83 93 62
Width: 678
Flags: W
LayerCount: 2
Fore
SplineSet
303 -64 m 1
 303 1839 l 1
 536 1839 l 1
 536 -64 l 1
 303 -64 l 1
252 1839 m 1
 252 1721 l 1
 65 1721 l 1
 65 1839 l 1
 252 1839 l 1
252 54 m 1
 252 -64 l 1
 65 -64 l 1
 65 54 l 1
 252 54 l 1
EndSplineSet
EndChar

StartChar: asciicircum
Encoding: 84 94 63
Width: 912
Flags: W
LayerCount: 2
Fore
SplineSet
325 905 m 1
 60 905 l 1
 75 933 321 1465 321 1465 c 1
 452 1465 l 1
 452 1261 l 1
 325 905 l 1
894 905 m 1
 629 905 l 1
 502 1261 l 1
 502 1465 l 1
 633 1465 l 1
 633 1465 879 933 894 905 c 1
EndSplineSet
EndChar

StartChar: underscore
Encoding: 85 95 64
Width: 848
Flags: W
LayerCount: 2
Fore
SplineSet
30 0 m 1
 30 199 l 1
 812 199 l 1
 812 0 l 1
 30 0 l 1
EndSplineSet
EndChar

StartChar: a
Encoding: 87 97 66
Width: 1100
Flags: W
LayerCount: 2
Fore
SplineSet
645 1782 m 1
 528 1135 l 1
 330 0 l 1
 25 0 l 1
 403 1782 l 1
 645 1782 l 1
576 1114 m 1
 697 1782 l 1
 1075 0 l 1
 762 0 l 1
 685 399 l 1
 453 399 l 1
 480 584 l 1
 662 584 l 1
 576 1114 l 1
EndSplineSet
EndChar

StartChar: b
Encoding: 88 98 67
Width: 1115
Flags: W
LayerCount: 2
Fore
SplineSet
482 856 m 1
 482 1067 l 1
 533 1067 l 2
 675 1067 708 1188 708 1330 c 0
 708 1537 630 1567 492 1567 c 2
 482 1567 l 1
 482 1782 l 1
 486 1782 l 2
 794 1782 1002 1674 1002 1324 c 0
 1002 1144 917 1033 749 973 c 1
 969 914 1047 734 1047 527 c 0
 1047 184 900 0 550 0 c 2
 482 0 l 1
 482 226 l 1
 520 226 l 2
 709 226 739 338 739 546 c 0
 739 723 693 856 521 856 c 2
 482 856 l 1
432 0 m 1
 116 0 l 1
 116 1782 l 1
 432 1782 l 1
 432 0 l 1
EndSplineSet
EndChar

StartChar: c
Encoding: 89 99 68
Width: 1152
Flags: W
LayerCount: 2
Fore
SplineSet
620 -33 m 1
 620 214 l 1
 747 232 768 388 768 535 c 2
 768 705 l 1
 1077 705 l 1
 1077 568 l 1
 1073 259 974 -20 620 -33 c 1
620 1567 m 1
 620 1815 l 1
 959 1803 1077 1558 1077 1232 c 2
 1077 1096 l 1
 767 1096 l 1
 767 1248 l 2
 767 1390 749 1549 620 1567 c 1
570 1815 m 1
 570 1568 l 1
 434 1553 408 1407 408 1280 c 2
 408 501 l 2
 408 374 434 228 570 213 c 1
 570 -33 l 1
 203 -21 92 251 92 578 c 2
 92 1202 l 2
 92 1536 204 1803 570 1815 c 1
EndSplineSet
EndChar

StartChar: d
Encoding: 90 100 69
Width: 1148
Flags: W
LayerCount: 2
Fore
SplineSet
482 0 m 1
 482 225 l 1
 491 225 l 2
 686 225 739 270 739 437 c 2
 739 1362 l 2
 739 1504 665 1555 496 1556 c 1
 482 1556 l 1
 482 1782 l 1
 494 1782 l 2
 943 1782 1056 1596 1056 1215 c 2
 1056 600 l 2
 1056 212 970 0 491 0 c 2
 482 0 l 1
432 0 m 1
 116 0 l 1
 116 1782 l 1
 432 1782 l 1
 432 0 l 1
EndSplineSet
EndChar

StartChar: e
Encoding: 91 101 70
Width: 871
Flags: W
LayerCount: 2
Fore
SplineSet
432 0 m 1
 116 0 l 1
 116 1782 l 1
 432 1782 l 1
 432 0 l 1
482 0 m 1
 482 221 l 1
 833 221 l 1
 833 0 l 1
 482 0 l 1
482 1561 m 1
 482 1782 l 1
 833 1782 l 1
 833 1561 l 1
 482 1561 l 1
482 810 m 1
 482 1035 l 1
 717 1035 l 1
 717 810 l 1
 482 810 l 1
EndSplineSet
EndChar

StartChar: f
Encoding: 92 102 71
Width: 842
Flags: W
LayerCount: 2
Fore
SplineSet
432 0 m 1
 116 0 l 1
 116 1782 l 1
 432 1782 l 1
 432 0 l 1
482 1561 m 1
 482 1782 l 1
 833 1782 l 1
 833 1561 l 1
 482 1561 l 1
482 810 m 1
 482 1035 l 1
 717 1035 l 1
 717 810 l 1
 482 810 l 1
EndSplineSet
EndChar

StartChar: g
Encoding: 93 103 72
Width: 1211
Flags: W
LayerCount: 2
Fore
SplineSet
628 1568 m 1
 628 1815 l 1
 982 1805 1099 1552 1099 1221 c 2
 1099 1136 l 1
 794 1136 l 1
 794 1236 l 2
 794 1382 781 1552 628 1568 c 1
623 -25 m 1
 623 213 l 1
 767 225 794 378 794 497 c 2
 794 674 l 1
 665 674 l 1
 665 903 l 1
 1110 903 l 1
 1110 0 l 1
 901 0 l 1
 855 135 l 1
 809 54 720 -4 623 -25 c 1
574 214 m 1
 574 -32 l 1
 565 -33 557 -33 548 -33 c 0
 192 -33 92 292 92 545 c 2
 92 1200 l 2
 92 1533 206 1801 578 1814 c 1
 578 1567 l 1
 440 1550 408 1408 408 1285 c 2
 408 490 l 2
 408 370 436 232 574 214 c 1
EndSplineSet
EndChar

StartChar: h
Encoding: 94 104 73
Width: 1187
Flags: W
LayerCount: 2
Fore
SplineSet
753 1782 m 1
 1072 1782 l 1
 1072 0 l 1
 753 0 l 1
 753 810 l 1
 482 810 l 1
 482 1012 l 1
 753 1012 l 1
 753 1782 l 1
433 1782 m 1
 432 0 l 1
 116 0 l 1
 116 1782 l 1
 433 1782 l 1
EndSplineSet
EndChar

StartChar: i
Encoding: 95 105 74
Width: 548
Flags: W
LayerCount: 2
Fore
SplineSet
115 0 m 1
 115 1782 l 1
 432 1782 l 1
 432 0 l 1
 115 0 l 1
EndSplineSet
EndChar

StartChar: j
Encoding: 96 106 75
Width: 612
Flags: W
LayerCount: 2
Fore
SplineSet
3 -26 m 1
 3 198 l 1
 149 198 181 226 181 429 c 2
 181 1782 l 1
 497 1782 l 1
 497 427 l 2
 497 123 440 -26 99 -26 c 2
 3 -26 l 1
EndSplineSet
EndChar

StartChar: k
Encoding: 97 107 76
Width: 1147
Flags: W
LayerCount: 2
Fore
SplineSet
482 857 m 1
 482 1094 l 1
 754 1782 l 1
 1105 1782 l 1
 741 981 l 1
 1144 0 l 1
 815 0 l 1
 482 857 l 1
432 0 m 1
 116 0 l 1
 116 1782 l 1
 432 1782 l 1
 432 0 l 1
EndSplineSet
EndChar

StartChar: l
Encoding: 98 108 77
Width: 837
Flags: W
LayerCount: 2
Fore
SplineSet
432 0 m 1
 116 0 l 1
 116 1782 l 1
 432 1782 l 1
 432 0 l 1
482 0 m 1
 482 221 l 1
 818 221 l 1
 818 0 l 1
 482 0 l 1
EndSplineSet
EndChar

StartChar: m
Encoding: 99 109 78
Width: 1518
Flags: W
LayerCount: 2
Fore
SplineSet
1086 1781 m 1
 1107 1781 l 1
 1107 871 l 1
 844 0 l 1
 674 0 l 1
 411 871 l 1
 411 1781 l 1
 429 1781 l 1
 759 449 l 1
 1086 1781 l 1
361 0 m 1
 116 0 l 1
 116 1782 l 1
 361 1782 l 1
 361 0 l 1
1402 0 m 1
 1157 0 l 1
 1157 1782 l 1
 1402 1782 l 1
 1402 0 l 1
EndSplineSet
EndChar

StartChar: n
Encoding: 100 110 79
Width: 1183
Flags: W
LayerCount: 2
Fore
SplineSet
116 1783 m 1
 345 1783 l 1
 388 1679 l 1
 388 0 l 1
 116 0 l 1
 116 1783 l 1
846 0 m 1
 804 105 l 1
 804 1783 l 1
 1067 1783 l 1
 1067 0 l 1
 846 0 l 1
438 949 m 1
 438 1558 l 1
 754 868 l 1
 754 231 l 1
 438 949 l 1
EndSplineSet
EndChar

StartChar: o
Encoding: 101 111 80
Width: 1198
Flags: W
LayerCount: 2
Fore
SplineSet
573 1815 m 1
 573 1568 l 1
 437 1553 408 1407 408 1280 c 2
 408 500 l 2
 408 373 436 228 573 213 c 1
 573 -33 l 1
 209 -22 92 244 92 571 c 2
 92 1202 l 2
 92 1536 207 1803 573 1815 c 1
623 1568 m 1
 623 1815 l 1
 989 1803 1106 1537 1106 1202 c 2
 1106 578 l 2
 1106 251 990 -21 623 -33 c 1
 623 213 l 1
 761 228 789 371 789 500 c 2
 789 1280 l 2
 789 1408 760 1553 623 1568 c 1
EndSplineSet
EndChar

StartChar: p
Encoding: 102 112 81
Width: 1028
Flags: W
LayerCount: 2
Fore
SplineSet
432 1782 m 1
 432 0 l 1
 116 0 l 1
 116 1782 l 1
 432 1782 l 1
482 1554 m 1
 482 1782 l 1
 548 1782 l 2
 868 1782 987 1585 987 1283 c 0
 987 908 817 770 494 769 c 1
 482 769 l 1
 482 996 l 1
 508 996 l 2
 670 996 685 1089 685 1288 c 0
 685 1451 667 1554 432 1554 c 2
 482 1554 l 1
EndSplineSet
EndChar

StartChar: q
Encoding: 103 113 82
Width: 1205
Flags: W
LayerCount: 2
Fore
SplineSet
575 214 m 1
 575 -35 l 1
 230 -24 92 230 92 571 c 2
 92 1202 l 2
 92 1537 209 1803 575 1815 c 1
 575 1567 l 1
 440 1550 408 1407 408 1280 c 2
 408 501 l 2
 408 373 440 231 575 214 c 1
625 -35 m 1
 625 213 l 1
 770 224 795 369 795 501 c 2
 795 1280 l 2
 795 1410 765 1555 625 1568 c 1
 625 1815 l 1
 995 1806 1111 1539 1111 1202 c 2
 1111 578 l 2
 1111 376 1061 172 900 46 c 1
 937 -18 1052 -29 1084 -32 c 1
 1084 -229 l 1
 868 -225 767 -117 705 -27 c 1
 679 -31 651 -34 625 -35 c 1
EndSplineSet
EndChar

StartChar: r
Encoding: 104 114 83
Width: 1119
Flags: W
LayerCount: 2
Fore
SplineSet
482 831 m 1
 482 1031 l 1
 581 1031 l 2
 716 1031 739 1205 739 1293 c 0
 739 1383 719 1548 595 1548 c 2
 482 1548 l 1
 482 1782 l 1
 526 1782 l 2
 863 1782 1054 1640 1054 1315 c 0
 1054 1153 1045 969 830 874 c 1
 1083 0 l 1
 760 0 l 1
 553 831 l 1
 482 831 l 1
432 0 m 1
 116 0 l 1
 116 1782 l 1
 432 1782 l 1
 432 0 l 1
EndSplineSet
EndChar

StartChar: s
Encoding: 105 115 84
Width: 1054
Flags: W
LayerCount: 2
Fore
SplineSet
557 1569 m 1
 557 1816 l 1
 802 1811 985 1622 995 1373 c 1
 995 1336 l 1
 674 1286 l 1
 674 1304 676 1325 676 1346 c 1
 671 1437 642 1546 557 1569 c 1
520 214 m 1
 520 -34 l 1
 217 -18 80 230 62 493 c 1
 379 557 l 1
 384 408 409 244 520 214 c 1
614 1037 m 1
 401 824 l 1
 329 892 l 1
 196 1009 64 1135 64 1365 c 0
 64 1632 243 1799 507 1815 c 1
 507 1572 l 1
 418 1563 375 1487 375 1399 c 0
 375 1278 441 1194 526 1119 c 0
 545 1102 580 1069 614 1037 c 1
437 791 m 1
 649 1002 l 1
 686 969 l 1
 860 808 1001 645 1001 385 c 0
 1001 135 807 -27 570 -35 c 1
 570 209 l 1
 661 215 694 282 694 372 c 0
 694 521 586 653 477 754 c 2
 437 791 l 1
EndSplineSet
EndChar

StartChar: t
Encoding: 106 116 85
Width: 884
Flags: W
LayerCount: 2
Fore
SplineSet
285 1494 m 1
 602 1494 l 1
 602 0 l 1
 285 0 l 1
 285 1494 l 1
5 1544 m 1
 5 1782 l 1
 879 1782 l 1
 879 1544 l 1
 5 1544 l 1
EndSplineSet
EndChar

StartChar: u
Encoding: 107 117 86
Width: 1223
Flags: W
LayerCount: 2
Fore
SplineSet
639 -33 m 1
 639 212 l 1
 794 221 801 348 801 615 c 2
 801 1782 l 1
 1117 1782 l 1
 1117 614 l 2
 1117 277 1053 -24 639 -33 c 1
589 213 m 1
 589 -33 l 1
 177 -22 106 279 106 614 c 2
 106 1782 l 1
 423 1782 l 1
 423 615 l 2
 423 354 443 228 589 213 c 1
EndSplineSet
EndChar

StartChar: v
Encoding: 108 118 87
Width: 1053
Flags: W
LayerCount: 2
Fore
SplineSet
498 747 m 1
 368 0 l 1
 27 1782 l 1
 331 1782 l 1
 498 747 l 1
419 0 m 1
 725 1782 l 1
 1026 1782 l 1
 670 0 l 1
 419 0 l 1
EndSplineSet
EndChar

StartChar: w
Encoding: 109 119 88
Width: 1475
Flags: W
LayerCount: 2
Fore
SplineSet
1185 0 m 1
 1056 850 l 1
 1170 1782 l 1
 1443 1782 l 1
 1185 0 l 1
418 851 m 1
 551 0 l 1
 292 0 l 1
 32 1782 l 1
 305 1782 l 1
 418 851 l 1
586 97 m 1
 469 852 l 1
 611 1782 l 1
 862 1782 l 1
 1003 850 l 1
 1136 0 l 1
 905 0 l 1
 738 1254 l 1
 586 97 l 1
EndSplineSet
EndChar

StartChar: x
Encoding: 110 120 89
Width: 1078
Flags: W
LayerCount: 2
Fore
SplineSet
313 864 m 1
 469 470 l 1
 302 0 l 1
 5 0 l 1
 313 864 l 1
708 0 m 1
 4 1782 l 1
 336 1782 l 1
 1042 0 l 1
 708 0 l 1
724 940 m 1
 564 1341 l 1
 704 1782 l 1
 1007 1782 l 1
 724 940 l 1
EndSplineSet
EndChar

StartChar: y
Encoding: 111 121 90
Width: 1002
Flags: W
LayerCount: 2
Fore
SplineSet
654 339 m 1
 654 0 l 1
 346 0 l 1
 346 581 l 1
 2 1782 l 1
 293 1782 l 1
 654 339 l 1
654 546 m 1
 529 1052 l 1
 654 1782 l 1
 1000 1782 l 1
 654 546 l 1
EndSplineSet
EndChar

StartChar: z
Encoding: 112 122 91
Width: 975
Flags: W
LayerCount: 2
Fore
SplineSet
357 0 m 1
 441 221 l 1
 893 221 l 1
 893 0 l 1
 357 0 l 1
611 1782 m 1
 527 1560 l 1
 134 1560 l 1
 134 1782 l 1
 611 1782 l 1
77 219 m 1
 665 1782 l 1
 893 1782 l 1
 893 1572 l 1
 304 0 l 1
 77 0 l 1
 77 219 l 1
EndSplineSet
EndChar

StartChar: braceleft
Encoding: 113 123 92
Width: 708
Flags: W
LayerCount: 2
Fore
SplineSet
644 135 m 1
 644 -62 l 1
 253 -62 192 184 192 549 c 0
 192 570 192 590 192 610 c 0
 192 702 182 776 62 776 c 1
 62 1041 l 1
 181 1041 192 1192 192 1301 c 0
 192 1326 192 1349 192 1367 c 0
 192 1745 285 1879 644 1879 c 1
 644 1681 l 1
 446 1681 446 1595 446 1380 c 0
 446 1226 420 993 272 909 c 1
 415 838 438 690 444 547 c 0
 453 321 437 135 644 135 c 1
EndSplineSet
EndChar

StartChar: bar
Encoding: 114 124 93
Width: 426
Flags: W
LayerCount: 2
Fore
SplineSet
138 -130 m 1
 138 1922 l 1
 336 1922 l 1
 336 -130 l 1
 138 -130 l 1
EndSplineSet
EndChar

StartChar: braceright
Encoding: 115 125 94
Width: 710
Flags: W
LayerCount: 2
Fore
SplineSet
60 -62 m 1
 60 135 l 1
 259 135 252 308 259 527 c 0
 263 677 283 834 432 909 c 1
 285 990 258 1229 258 1380 c 0
 258 1595 257 1681 60 1681 c 1
 60 1879 l 1
 419 1879 512 1746 512 1367 c 0
 512 1349 511 1326 511 1301 c 0
 511 1192 522 1041 642 1041 c 1
 642 776 l 1
 522 776 511 702 511 610 c 0
 511 590 512 570 512 549 c 0
 512 183 451 -62 60 -62 c 1
EndSplineSet
EndChar

StartChar: asciitilde
Encoding: 116 126 95
Width: 980
Flags: W
LayerCount: 2
Fore
SplineSet
297 868 m 1
 130 868 l 1
 130 1002 187 1147 351 1147 c 0
 454 1147 562 1062 634 1062 c 0
 668 1062 676 1100 677 1131 c 1
 844 1131 l 1
 844 1005 790 850 623 850 c 0
 515 850 401 936 337 936 c 0
 303 936 298 899 297 868 c 1
EndSplineSet
EndChar

StartChar: exclamdown
Encoding: 118 161 96
Width: 504
Flags: W
LayerCount: 2
Fore
SplineSet
105 1495 m 1
 105 1781 l 1
 397 1781 l 1
 397 1495 l 1
 105 1495 l 1
100 0 m 1
 199 1336 l 1
 301 1336 l 1
 410 0 l 1
 100 0 l 1
EndSplineSet
EndChar

StartChar: cent
Encoding: 119 162 97
Width: 1152
Flags: W
LayerCount: 2
Fore
SplineSet
563 67 m 1
 563 314 l 1
 690 332 711 488 711 635 c 2
 711 705 l 1
 1020 705 l 1
 1020 668 l 1
 1016 359 917 80 563 67 c 1
563 1367 m 1
 563 1615 l 1
 902 1603 1020 1358 1020 1032 c 2
 1020 936 l 1
 710 936 l 1
 710 1048 l 2
 710 1190 692 1349 563 1367 c 1
513 1615 m 1
 513 1368 l 1
 377 1353 351 1207 351 1080 c 2
 351 601 l 2
 351 474 377 328 513 313 c 1
 513 67 l 1
 146 79 35 351 35 678 c 2
 35 1002 l 2
 35 1336 147 1603 513 1615 c 1
484 1663 m 1
 484 1861 l 1
 594 1861 l 1
 594 1663 l 1
 484 1663 l 1
484 -188 m 1
 484 10 l 1
 594 10 l 1
 594 -188 l 1
 484 -188 l 1
EndSplineSet
EndChar

StartChar: sterling
Encoding: 120 163 98
Width: 1070
Flags: W
LayerCount: 2
Fore
SplineSet
519 0 m 1
 78 0 l 1
 78 159 l 1
 200 216 l 1
 200 735 l 1
 78 735 l 1
 78 960 l 1
 200 960 l 1
 200 1206 l 2
 200 1466 234 1806 592 1814 c 1
 592 1566 l 1
 517 1548 519 1363 519 1195 c 2
 519 0 l 1
642 1559 m 1
 642 1813 l 1
 960 1797 982 1527 982 1313 c 1
 701 1313 l 1
 701 1390 700 1524 642 1559 c 1
569 0 m 1
 569 246 l 1
 974 246 l 1
 974 0 l 1
 569 0 l 1
569 735 m 1
 569 961 l 1
 772 961 l 1
 772 735 l 1
 569 735 l 1
EndSplineSet
EndChar

StartChar: fraction
Encoding: 397 8260 99
Width: 625
Flags: W
LayerCount: 2
Fore
SplineSet
16 0 m 1
 339 1783 l 1
 526 1783 l 1
 200 0 l 1
 16 0 l 1
EndSplineSet
EndChar

StartChar: yen
Encoding: 122 165 100
Width: 1053
Flags: W
LayerCount: 2
Fore
SplineSet
848 427 m 1
 848 252 l 1
 654 252 l 1
 654 0 l 1
 346 0 l 1
 346 252 l 1
 156 252 l 1
 156 427 l 1
 346 427 l 1
 346 552 l 1
 156 552 l 1
 156 724 l 1
 305 724 l 1
 2 1782 l 1
 293 1782 l 1
 632 427 l 1
 848 427 l 1
654 552 m 1
 529 1052 l 1
 654 1782 l 1
 1000 1782 l 1
 702 724 l 1
 848 724 l 1
 848 552 l 1
 654 552 l 1
EndSplineSet
EndChar

StartChar: florin
Encoding: 328 402 101
Width: 571
Flags: W
LayerCount: 2
Fore
SplineSet
-14 -381 m 1
 -14 -272 l 1
 -2 -275 47 -278 60 -278 c 0
 180 -278 175 -191 175 -120 c 2
 175 1114 l 1
 8 1114 l 1
 8 1198 l 1
 175 1198 l 1
 175 1367 l 2
 175 1476 187 1652 392 1652 c 0
 433 1652 477 1648 514 1639 c 1
 514 1530 l 1
 502 1533 453 1536 440 1536 c 0
 320 1536 325 1449 325 1378 c 2
 325 1198 l 1
 517 1198 l 1
 517 1114 l 1
 325 1114 l 1
 325 -110 l 2
 325 -219 313 -394 108 -394 c 0
 67 -394 23 -390 -14 -381 c 1
EndSplineSet
EndChar

StartChar: section
Encoding: 124 167 102
Width: 985
Flags: W
LayerCount: 2
Fore
SplineSet
513 1615 m 1
 513 1829 l 1
 712 1818 828 1665 872 1479 c 1
 671 1413 l 1
 646 1488 598 1596 513 1615 c 1
463 195 m 1
 463 -19 l 1
 259 -7 144 148 96 337 c 1
 293 403 l 1
 320 327 377 215 463 195 c 1
513 509 m 1
 511 775 l 1
 606 775 623 831 623 874 c 0
 623 922 567 985 513 1034 c 1
 512 1323 l 1
 680 1216 877 1088 877 874 c 0
 877 755 833 674 710 630 c 1
 806 564 869 431 869 322 c 0
 869 103 716 -12 513 -20 c 1
 513 193 l 1
 582 200 615 248 615 321 c 0
 615 400 573 458 513 509 c 1
463 807 m 1
 463 537 l 1
 311 639 99 725 99 948 c 0
 99 1079 167 1179 295 1227 c 1
 209 1286 107 1380 107 1489 c 0
 107 1708 260 1820 463 1829 c 1
 463 1617 l 1
 400 1608 364 1561 364 1492 c 0
 364 1441 401 1397 446 1365 c 1
 463 1354 l 1
 463 1059 l 1
 368 1059 346 1017 346 961 c 0
 346 893 404 847 463 807 c 1
EndSplineSet
EndChar

StartChar: currency
Encoding: 121 164 103
Width: 1048
Flags: W
LayerCount: 2
Fore
SplineSet
500 600 m 1
 500 448 l 1
 417 452 351 473 297 508 c 1
 213 414 l 1
 131 492 l 1
 215 586 l 1
 160 657 135 747 135 839 c 0
 135 928 160 1017 214 1088 c 1
 131 1181 l 1
 213 1259 l 1
 296 1167 l 1
 350 1202 417 1224 500 1228 c 1
 500 1075 l 1
 367 1062 307 950 307 839 c 0
 307 724 374 614 500 600 c 1
550 448 m 1
 550 600 l 1
 681 614 742 726 742 838 c 0
 742 949 682 1062 550 1075 c 1
 550 1228 l 1
 634 1224 702 1201 757 1165 c 1
 841 1259 l 1
 923 1181 l 1
 837 1085 l 1
 890 1015 914 926 914 839 c 0
 914 748 889 660 836 589 c 1
 923 492 l 1
 841 414 l 1
 756 510 l 1
 702 475 633 452 550 448 c 1
EndSplineSet
EndChar

StartChar: quotesingle
Encoding: 29 39 104
Width: 360
Flags: W
LayerCount: 2
Fore
SplineSet
113 1247 m 1
 47 1780 l 1
 321 1780 l 1
 315 1746 260 1281 254 1247 c 1
 113 1247 l 1
EndSplineSet
EndChar

StartChar: guillemotleft
Encoding: 128 171 106
Width: 1014
Flags: W
LayerCount: 2
Fore
SplineSet
513 77 m 1
 79 576 l 1
 79 704 l 1
 513 1203 l 1
 513 909 l 1
 253 641 l 1
 513 371 l 1
 513 77 l 1
931 77 m 1
 496 576 l 1
 496 704 l 1
 931 1203 l 1
 931 909 l 1
 671 641 l 1
 931 371 l 1
 931 77 l 1
EndSplineSet
EndChar

StartChar: endash
Encoding: 382 8211 109
Width: 1024
Flags: HW
LayerCount: 2
Fore
SplineSet
29 452 m 1
 29 651 l 1
 995 651 l 1
 995 452 l 1
 29 452 l 1
EndSplineSet
EndChar

StartChar: periodcentered
Encoding: 140 183 110
Width: 503
Flags: W
LayerCount: 2
Fore
SplineSet
106 685 m 1
 106 969 l 1
 398 969 l 1
 398 685 l 1
 106 685 l 1
EndSplineSet
EndChar

StartChar: paragraph
Encoding: 139 182 111
Width: 1009
Flags: W
LayerCount: 2
Fore
SplineSet
393 0 m 1
 393 885 l 1
 182 888 23 1007 23 1218 c 0
 23 1461 199 1555 438 1555 c 2
 918 1555 l 1
 918 0 l 1
 732 0 l 1
 732 885 l 1
 597 885 l 1
 597 0 l 1
 393 0 l 1
EndSplineSet
EndChar

StartChar: bullet
Encoding: 392 8226 112
Width: 895
Flags: W
LayerCount: 2
Fore
SplineSet
407 431 m 0
 274 453 155 552 155 721 c 0
 155 931 300 1034 438 1034 c 0
 590 1034 742 925 742 737 c 0
 742 530 597 427 456 427 c 0
 440 427 423 428 407 431 c 0
EndSplineSet
EndChar

StartChar: quotesinglbase
Encoding: 386 8218 113
Width: 423
Flags: W
LayerCount: 2
Fore
SplineSet
137 -321 m 1
 72 77 l 1
 345 77 l 1
 340 43 285 -287 279 -321 c 1
 137 -321 l 1
EndSplineSet
EndChar

StartChar: quotedblbase
Encoding: 389 8222 114
Width: 754
Flags: W
LayerCount: 2
Fore
SplineSet
140 -320 m 1
 74 78 l 1
 348 78 l 1
 342 44 287 -286 281 -320 c 1
 140 -320 l 1
464 -320 m 1
 397 78 l 1
 671 78 l 1
 666 44 610 -286 604 -320 c 1
 464 -320 l 1
EndSplineSet
EndChar

StartChar: guillemotright
Encoding: 144 187 116
Width: 1013
Flags: W
LayerCount: 2
Fore
SplineSet
86 77 m 1
 86 371 l 1
 347 641 l 1
 86 909 l 1
 86 1203 l 1
 521 704 l 1
 521 576 l 1
 86 77 l 1
504 77 m 1
 504 371 l 1
 764 641 l 1
 504 909 l 1
 504 1203 l 1
 938 704 l 1
 938 576 l 1
 504 77 l 1
EndSplineSet
EndChar

StartChar: perthousand
Encoding: 394 8240 117
Width: 2647
Flags: W
LayerCount: 2
Fore
SplineSet
561 0 m 1
 1132 1810 l 1
 1299 1810 l 1
 727 0 l 1
 561 0 l 1
1459 794 m 1
 1459 981 l 1
 1699 969 1784 791 1784 525 c 2
 1784 465 l 2
 1784 204 1701 8 1459 -5 c 1
 1458 181 l 1
 1538 201 1549 318 1549 466 c 2
 1549 521 l 2
 1549 669 1541 776 1459 794 c 1
1408 181 m 1
 1408 -5 l 1
 1166 8 1084 204 1084 465 c 2
 1084 525 l 2
 1084 790 1167 969 1408 981 c 1
 1409 795 l 1
 1327 778 1316 670 1316 522 c 2
 1316 466 l 2
 1316 318 1329 201 1408 181 c 1
459 1596 m 1
 459 1783 l 1
 699 1771 784 1593 784 1327 c 2
 784 1267 l 2
 784 1006 701 810 459 797 c 1
 458 983 l 1
 538 1003 549 1120 549 1268 c 2
 549 1323 l 2
 549 1471 541 1578 459 1596 c 1
408 983 m 1
 408 797 l 1
 166 810 84 1006 84 1267 c 2
 84 1327 l 2
 84 1592 167 1771 408 1783 c 1
 409 1597 l 1
 327 1580 316 1472 316 1324 c 2
 316 1268 l 2
 316 1120 329 1003 408 983 c 1
2240 794 m 1
 2240 981 l 1
 2480 969 2565 791 2565 525 c 2
 2565 465 l 2
 2565 204 2482 8 2240 -5 c 1
 2239 181 l 1
 2319 201 2330 318 2330 466 c 2
 2330 521 l 2
 2330 669 2322 776 2240 794 c 1
2189 181 m 1
 2189 -5 l 1
 1947 8 1865 204 1865 465 c 2
 1865 525 l 2
 1865 790 1948 969 2189 981 c 1
 2190 795 l 1
 2108 778 2097 670 2097 522 c 2
 2097 466 l 2
 2097 318 2110 201 2189 181 c 1
EndSplineSet
EndChar

StartChar: questiondown
Encoding: 148 191 118
Width: 1099
Flags: W
LayerCount: 2
Fore
SplineSet
666 -33 m 1
 666 224 l 1
 745 238 790 314 790 414 c 0
 790 445 785 511 776 542 c 1
 1049 588 l 1
 1064 532 1072 444 1072 393 c 0
 1072 150 933 -23 666 -33 c 1
616 224 m 1
 616 -33 l 1
 359 -23 195 132 195 414 c 0
 195 729 557 948 557 1177 c 2
 557 1248 l 1
 847 1248 l 1
 847 1151 l 2
 847 852 487 682 487 399 c 0
 487 290 539 234 616 224 c 1
852 1782 m 1
 852 1490 l 1
 552 1490 l 1
 552 1782 l 1
 852 1782 l 1
EndSplineSet
EndChar

StartChar: grave
Encoding: 86 96 119
Width: 595
Flags: W
LayerCount: 2
Fore
SplineSet
243 1740 m 1
 516 1378 l 1
 305 1378 l 1
 -61 1740 l 1
 243 1740 l 1
EndSplineSet
EndChar

StartChar: acute
Encoding: 137 180 120
Width: 595
Flags: W
LayerCount: 2
Fore
SplineSet
109 1378 m 1
 382 1740 l 1
 686 1740 l 1
 320 1378 l 1
 109 1378 l 1
EndSplineSet
EndChar

StartChar: circumflex
Encoding: 368 710 121
Width: 805
Flags: W
LayerCount: 2
Fore
SplineSet
819 1370 m 1
 554 1370 l 1
 427 1578 l 1
 427 1782 l 1
 558 1782 l 1
 558 1782 804 1391 819 1370 c 1
250 1370 m 1
 -15 1370 l 1
 0 1391 246 1782 246 1782 c 1
 377 1782 l 1
 377 1578 l 1
 250 1370 l 1
EndSplineSet
EndChar

StartChar: macron
Encoding: 132 175 123
Width: 490
Flags: W
LayerCount: 2
Fore
SplineSet
1 1440 m 1
 1 1616 l 1
 494 1616 l 1
 494 1440 l 1
 1 1440 l 1
EndSplineSet
EndChar

StartChar: breve
Encoding: 370 728 124
Width: 730
Flags: W
LayerCount: 2
Fore
SplineSet
94 1663 m 1
 253 1663 l 1
 257 1594 288 1528 352 1528 c 0
 417 1528 448 1594 452 1663 c 1
 611 1663 l 1
 609 1499 491 1410 352 1410 c 0
 214 1410 96 1499 94 1663 c 1
EndSplineSet
EndChar

StartChar: dotaccent
Encoding: 371 729 125
Width: 541
Flags: W
LayerCount: 2
Fore
SplineSet
139 1472 m 1
 139 1759 l 1
 431 1759 l 1
 431 1472 l 1
 139 1472 l 1
EndSplineSet
EndChar

StartChar: dieresis
Encoding: 125 168 126
Width: 898
Flags: W
LayerCount: 2
Fore
SplineSet
115 1468 m 1
 115 1748 l 1
 392 1748 l 1
 392 1468 l 1
 115 1468 l 1
553 1468 m 1
 553 1748 l 1
 830 1748 l 1
 830 1468 l 1
 553 1468 l 1
EndSplineSet
EndChar

StartChar: ring
Encoding: 372 730 127
Width: 730
Flags: W
LayerCount: 2
Fore
SplineSet
333 1518 m 1
 333 1405 l 1
 202 1416 114 1508 114 1638 c 0
 114 1769 202 1861 333 1872 c 1
 333 1759 l 1
 283 1743 265 1684 265 1639 c 0
 265 1594 283 1534 333 1518 c 1
383 1405 m 1
 383 1517 l 1
 435 1531 452 1592 452 1638 c 0
 452 1682 434 1745 383 1760 c 1
 383 1872 l 1
 515 1862 605 1769 605 1638 c 0
 605 1506 516 1414 383 1405 c 1
EndSplineSet
EndChar

StartChar: cedilla
Encoding: 141 184 128
Width: 555
Flags: W
LayerCount: 2
Fore
SplineSet
127 -524 m 1
 127 -385 l 1
 172 -385 332 -389 332 -338 c 0
 332 -281 227 -239 181 -218 c 1
 181 -125 l 1
 328 -126 l 1
 419 -171 531 -244 531 -343 c 0
 531 -512 269 -524 127 -524 c 1
EndSplineSet
EndChar

StartChar: hungarumlaut
Encoding: 375 733 129
Width: 911
Flags: W
LayerCount: 2
Fore
SplineSet
110 1406 m 1
 240 1819 l 1
 496 1819 l 1
 283 1406 l 1
 110 1406 l 1
407 1406 m 1
 537 1819 l 1
 794 1819 l 1
 581 1406 l 1
 407 1406 l 1
EndSplineSet
EndChar

StartChar: ogonek
Encoding: 373 731 130
Width: 553
Flags: W
LayerCount: 2
Fore
SplineSet
234 -95 m 1
 386 -95 l 1
 355 -158 325 -222 325 -293 c 0
 325 -402 429 -401 517 -401 c 1
 501 -541 l 1
 488 -541 475 -542 462 -542 c 0
 303 -542 128 -519 128 -337 c 0
 128 -252 179 -161 234 -95 c 1
EndSplineSet
EndChar

StartChar: caron
Encoding: 369 711 131
Width: 805
Flags: W
LayerCount: 2
Fore
SplineSet
-15 1782 m 1
 250 1782 l 1
 377 1574 l 1
 377 1370 l 1
 246 1370 l 1
 246 1370 0 1761 -15 1782 c 1
554 1782 m 1
 819 1782 l 1
 804 1761 558 1370 558 1370 c 1
 427 1370 l 1
 427 1574 l 1
 554 1782 l 1
EndSplineSet
EndChar

StartChar: emdash
Encoding: 383 8212 132
Width: 2048
Flags: HW
LayerCount: 2
Fore
SplineSet
29 452 m 1
 29 651 l 1
 2019 651 l 1
 2019 452 l 1
 29 452 l 1
EndSplineSet
EndChar

StartChar: AE
Encoding: 155 198 133
Width: 1516
Flags: W
LayerCount: 2
Fore
SplineSet
960 1782 m 1
 331 0 l 1
 25 0 l 1
 702 1782 l 1
 960 1782 l 1
1078 0 m 1
 782 0 l 1
 782 399 l 1
 526 399 l 1
 595 594 l 1
 782 594 l 1
 782 1126 l 1
 1014 1782 l 1
 1078 1782 l 1
 1078 0 l 1
1128 1561 m 1
 1128 1782 l 1
 1478 1782 l 1
 1478 1561 l 1
 1128 1561 l 1
1128 0 m 1
 1128 221 l 1
 1478 221 l 1
 1478 0 l 1
 1128 0 l 1
1128 810 m 1
 1128 1035 l 1
 1362 1035 l 1
 1362 810 l 1
 1128 810 l 1
EndSplineSet
EndChar

StartChar: Lslash
Encoding: 276 321 134
Width: 849
Flags: W
LayerCount: 2
Fore
SplineSet
433 0 m 1
 116 0 l 1
 116 881 l 1
 21 845 l 1
 21 1013 l 1
 116 1049 l 1
 116 1782 l 1
 433 1782 l 1
 433 1168 l 1
 689 1265 l 1
 689 1097 l 1
 433 1000 l 1
 433 0 l 1
483 0 m 1
 483 221 l 1
 818 221 l 1
 818 0 l 1
 483 0 l 1
EndSplineSet
EndChar

StartChar: Oslash
Encoding: 173 216 135
Width: 1198
Flags: W
LayerCount: 2
Fore
SplineSet
476 252 m 1
 334 -244 l 1
 245 -224 l 1
 319 36 l 1
 151 136 92 338 92 571 c 2
 92 1202 l 2
 92 1544 212 1815 598 1815 c 0
 661 1815 718 1807 767 1793 c 1
 696 1541 l 1
 670 1559 639 1569 598 1569 c 0
 441 1569 408 1414 408 1280 c 2
 408 493 l 2
 408 403 421 307 476 252 c 1
451 -17 m 1
 519 222 l 1
 541 211 567 205 599 205 c 0
 758 205 789 357 789 493 c 2
 788 1280 l 2
 788 1358 777 1442 737 1500 c 1
 884 2023 l 1
 973 2003 l 1
 897 1734 l 1
 1050 1629 1106 1432 1106 1202 c 2
 1106 578 l 2
 1106 244 985 -33 598 -33 c 0
 544 -33 494 -27 451 -17 c 1
EndSplineSet
EndChar

StartChar: OE
Encoding: 290 338 136
Width: 1543
Flags: W
LayerCount: 2
Fore
SplineSet
738 224 m 1
 738 0 l 1
 598 0 l 2
 213 0 91 249 91 584 c 2
 91 1189 l 2
 91 1514 211 1782 598 1782 c 2
 738 1782 l 1
 738 1551 l 1
 598 1551 l 2
 440 1551 408 1398 408 1267 c 2
 408 506 l 2
 408 376 440 224 598 224 c 2
 738 224 l 1
1105 0 m 1
 788 0 l 1
 788 1782 l 1
 1105 1782 l 1
 1105 1035 l 1
 1389 1035 l 1
 1389 810 l 1
 1105 810 l 1
 1105 0 l 1
1155 1561 m 1
 1155 1782 l 1
 1505 1782 l 1
 1505 1561 l 1
 1155 1561 l 1
1155 0 m 1
 1155 221 l 1
 1505 221 l 1
 1505 0 l 1
 1155 0 l 1
EndSplineSet
EndChar

StartChar: ae
Encoding: 187 230 137
Width: 1516
Flags: W
LayerCount: 2
Fore
SplineSet
960 1782 m 1
 331 0 l 1
 25 0 l 1
 702 1782 l 1
 960 1782 l 1
1078 0 m 1
 782 0 l 1
 782 399 l 1
 526 399 l 1
 595 594 l 1
 782 594 l 1
 782 1126 l 1
 1014 1782 l 1
 1078 1782 l 1
 1078 0 l 1
1128 1561 m 1
 1128 1782 l 1
 1478 1782 l 1
 1478 1561 l 1
 1128 1561 l 1
1128 0 m 1
 1128 221 l 1
 1478 221 l 1
 1478 0 l 1
 1128 0 l 1
1128 810 m 1
 1128 1035 l 1
 1362 1035 l 1
 1362 810 l 1
 1128 810 l 1
EndSplineSet
EndChar

StartChar: dotlessi
Encoding: 260 305 138
Width: 548
Flags: W
LayerCount: 2
Fore
SplineSet
115 0 m 1
 115 1782 l 1
 432 1782 l 1
 432 0 l 1
 115 0 l 1
EndSplineSet
EndChar

StartChar: lslash
Encoding: 277 322 139
Width: 849
Flags: W
LayerCount: 2
Fore
SplineSet
433 0 m 1
 116 0 l 1
 116 881 l 1
 21 845 l 1
 21 1013 l 1
 116 1049 l 1
 116 1782 l 1
 433 1782 l 1
 433 1168 l 1
 689 1265 l 1
 689 1097 l 1
 433 1000 l 1
 433 0 l 1
483 0 m 1
 483 221 l 1
 818 221 l 1
 818 0 l 1
 483 0 l 1
EndSplineSet
EndChar

StartChar: oslash
Encoding: 205 248 140
Width: 1198
Flags: W
LayerCount: 2
Fore
SplineSet
476 252 m 1
 334 -244 l 1
 245 -224 l 1
 319 36 l 1
 151 136 92 338 92 571 c 2
 92 1202 l 2
 92 1544 212 1815 598 1815 c 0
 661 1815 718 1807 767 1793 c 1
 696 1541 l 1
 670 1559 639 1569 598 1569 c 0
 441 1569 408 1414 408 1280 c 2
 408 493 l 2
 408 403 421 307 476 252 c 1
451 -17 m 1
 519 222 l 1
 541 211 567 205 599 205 c 0
 758 205 789 357 789 493 c 2
 788 1280 l 2
 788 1358 777 1442 737 1500 c 1
 884 2023 l 1
 973 2003 l 1
 897 1734 l 1
 1050 1629 1106 1432 1106 1202 c 2
 1106 578 l 2
 1106 244 985 -33 598 -33 c 0
 544 -33 494 -27 451 -17 c 1
EndSplineSet
EndChar

StartChar: oe
Encoding: 291 339 141
Width: 1543
Flags: W
LayerCount: 2
Fore
SplineSet
738 224 m 1
 738 0 l 1
 598 0 l 2
 213 0 91 249 91 584 c 2
 91 1189 l 2
 91 1514 211 1782 598 1782 c 2
 738 1782 l 1
 738 1551 l 1
 598 1551 l 2
 440 1551 408 1398 408 1267 c 2
 408 506 l 2
 408 376 440 224 598 224 c 2
 738 224 l 1
1105 0 m 1
 788 0 l 1
 788 1782 l 1
 1105 1782 l 1
 1105 1035 l 1
 1389 1035 l 1
 1389 810 l 1
 1105 810 l 1
 1105 0 l 1
1155 1561 m 1
 1155 1782 l 1
 1505 1782 l 1
 1505 1561 l 1
 1155 1561 l 1
1155 0 m 1
 1155 221 l 1
 1505 221 l 1
 1505 0 l 1
 1155 0 l 1
EndSplineSet
EndChar

StartChar: germandbls
Encoding: 180 223 142
Width: 1162
Flags: W
LayerCount: 2
Fore
SplineSet
506 1035 m 1
 740 970 l 1
 955 909 1097 662 1097 412 c 0
 1097 174 976 -34 635 -34 c 1
 526 -33 l 1
 526 187 l 1
 609 187 l 2
 753 187 807 303 807 437 c 0
 807 621 684 794 506 826 c 1
 506 1035 l 1
770 1015 m 1
 535 1078 l 1
 654 1132 737 1291 737 1418 c 0
 737 1511 693 1588 586 1595 c 1
 585 1813 l 1
 867 1813 1018 1618 1018 1411 c 0
 1018 1261 938 1104 770 1015 c 1
536 1814 m 1
 536 1595 l 1
 447 1578 426 1470 426 1357 c 2
 426 0 l 1
 107 0 l 1
 107 1354 l 2
 107 1608 254 1808 536 1814 c 1
EndSplineSet
EndChar

StartChar: uni00B9
Encoding: 142 185 143
Width: 553
Flags: W
LayerCount: 2
Fore
SplineSet
208 635 m 1
 208 1501 l 1
 252 1533 292 1570 325 1614 c 1
 412 1614 l 1
 412 635 l 1
 208 635 l 1
158 1472 m 1
 158 1266 l 1
 123 1259 36 1253 28 1251 c 1
 28 1397 l 1
 71 1418 115 1442 158 1472 c 1
EndSplineSet
EndChar

StartChar: logicalnot
Encoding: 129 172 144
Width: 791
Flags: W
LayerCount: 2
Fore
SplineSet
128 452 m 1
 128 651 l 1
 651 651 l 1
 651 258 l 1
 516 258 l 1
 516 452 l 1
 128 452 l 1
EndSplineSet
EndChar

StartChar: Eth
Encoding: 165 208 146
Width: 1150
Flags: W
LayerCount: 2
Fore
SplineSet
433 0 m 1
 116 0 l 1
 116 809 l 1
 21 809 l 1
 21 1008 l 1
 116 1008 l 1
 116 1782 l 1
 433 1782 l 1
 433 1008 l 1
 574 1008 l 1
 574 809 l 1
 433 809 l 1
 433 0 l 1
483 0 m 1
 483 225 l 1
 497 225 l 2
 687 225 740 272 740 437 c 2
 740 1362 l 2
 740 1503 665 1556 494 1556 c 2
 483 1556 l 1
 483 1782 l 1
 495 1782 l 2
 944 1782 1056 1596 1056 1215 c 2
 1056 600 l 2
 1056 212 970 0 492 0 c 2
 483 0 l 1
EndSplineSet
EndChar

StartChar: onehalf
Encoding: 146 189 147
Width: 1699
Flags: W
LayerCount: 2
Fore
SplineSet
434 0 m 1
 1005 1810 l 1
 1177 1810 l 1
 605 0 l 1
 434 0 l 1
213 636 m 1
 213 1502 l 1
 257 1534 297 1571 330 1615 c 1
 417 1615 l 1
 417 636 l 1
 213 636 l 1
163 1473 m 1
 163 1267 l 1
 128 1260 41 1254 33 1252 c 1
 33 1398 l 1
 76 1419 120 1443 163 1473 c 1
1333 982 m 1
 1333 831 l 1
 1285 810 1285 729 1285 677 c 1
 1080 677 l 1
 1080 854 1166 971 1333 982 c 1
1256 -1 m 1
 1365 147 l 1
 1627 147 l 1
 1627 -1 l 1
 1256 -1 l 1
1193 -1 m 1
 1080 -1 l 1
 1080 136 l 1
 1172 254 1426 577 1426 700 c 0
 1426 748 1423 813 1383 831 c 1
 1383 982 l 1
 1542 973 1630 867 1630 700 c 0
 1630 613 1558 494 1486 396 c 2
 1193 -1 l 1
EndSplineSet
EndChar

StartChar: plusminus
Encoding: 134 177 148
Width: 852
Flags: W
LayerCount: 2
Fore
SplineSet
130 0 m 1
 130 199 l 1
 716 199 l 1
 716 0 l 1
 130 0 l 1
323 388 m 1
 323 581 l 1
 130 581 l 1
 130 780 l 1
 323 780 l 1
 323 974 l 1
 524 974 l 1
 524 780 l 1
 716 780 l 1
 716 581 l 1
 524 581 l 1
 524 388 l 1
 323 388 l 1
EndSplineSet
EndChar

StartChar: Thorn
Encoding: 179 222 149
Width: 1028
Flags: W
LayerCount: 2
Fore
SplineSet
425 0 m 1
 108 0 l 1
 108 1782 l 1
 425 1782 l 1
 425 0 l 1
475 1313 m 1
 475 1541 l 1
 540 1541 l 2
 860 1541 979 1344 979 1042 c 0
 979 671 813 532 495 528 c 1
 475 528 l 1
 475 754 l 1
 500 754 l 2
 662 754 678 849 678 1046 c 0
 678 1210 659 1313 504 1313 c 2
 475 1313 l 1
EndSplineSet
EndChar

StartChar: onequarter
Encoding: 145 188 150
Width: 1651
Flags: W
LayerCount: 2
Fore
SplineSet
407 0 m 1
 978 1810 l 1
 1151 1810 l 1
 578 0 l 1
 407 0 l 1
213 636 m 1
 213 1502 l 1
 257 1534 297 1571 330 1615 c 1
 417 1615 l 1
 417 636 l 1
 213 636 l 1
163 1473 m 1
 163 1267 l 1
 128 1260 41 1254 33 1252 c 1
 33 1398 l 1
 76 1419 120 1443 163 1473 c 1
1460 1030 m 1
 1463 1030 l 1
 1463 1 l 1
 1260 1 l 1
 1260 569 l 1
 1460 1030 l 1
1406 1030 m 1
 1136 410 l 1
 1210 410 l 1
 1210 264 l 1
 943 264 l 1
 943 401 l 1
 1245 1030 l 1
 1406 1030 l 1
1513 264 m 1
 1513 410 l 1
 1594 410 l 1
 1594 264 l 1
 1513 264 l 1
EndSplineSet
EndChar

StartChar: divide
Encoding: 204 247 151
Width: 691
Flags: W
LayerCount: 2
Fore
SplineSet
12 581 m 1
 12 780 l 1
 664 780 l 1
 664 581 l 1
 12 581 l 1
206 888 m 1
 206 1150 l 1
 470 1150 l 1
 470 888 l 1
 206 888 l 1
206 235 m 1
 206 498 l 1
 470 498 l 1
 470 235 l 1
 206 235 l 1
EndSplineSet
EndChar

StartChar: brokenbar
Encoding: 123 166 152
Width: 433
Flags: W
LayerCount: 2
Fore
SplineSet
107 -15 m 1
 107 625 l 1
 318 625 l 1
 318 -15 l 1
 107 -15 l 1
107 898 m 1
 107 1537 l 1
 318 1537 l 1
 318 898 l 1
 107 898 l 1
EndSplineSet
EndChar

StartChar: degree
Encoding: 133 176 153
Width: 993
Flags: W
LayerCount: 2
Fore
SplineSet
464 1279 m 1
 464 1108 l 1
 253 1118 129 1263 129 1469 c 0
 129 1676 254 1819 464 1829 c 1
 464 1657 l 1
 364 1646 319 1562 319 1469 c 0
 319 1377 366 1291 464 1279 c 1
514 1108 m 1
 514 1279 l 1
 614 1291 662 1376 662 1468 c 0
 662 1561 614 1645 514 1657 c 1
 514 1830 l 1
 727 1821 853 1677 853 1469 c 0
 853 1262 727 1118 514 1108 c 1
EndSplineSet
EndChar

StartChar: thorn
Encoding: 211 254 154
Width: 1028
Flags: W
LayerCount: 2
Fore
SplineSet
425 0 m 1
 108 0 l 1
 108 1782 l 1
 425 1782 l 1
 425 0 l 1
475 1313 m 1
 475 1541 l 1
 540 1541 l 2
 860 1541 979 1344 979 1042 c 0
 979 671 813 532 495 528 c 1
 475 528 l 1
 475 754 l 1
 500 754 l 2
 662 754 678 849 678 1046 c 0
 678 1210 659 1313 504 1313 c 2
 475 1313 l 1
EndSplineSet
EndChar

StartChar: threequarters
Encoding: 147 190 155
Width: 1894
Flags: W
LayerCount: 2
Fore
SplineSet
600 0 m 1
 1171 1810 l 1
 1344 1810 l 1
 771 0 l 1
 600 0 l 1
1650 1030 m 1
 1653 1030 l 1
 1653 1 l 1
 1450 1 l 1
 1450 569 l 1
 1650 1030 l 1
1596 1030 m 1
 1326 410 l 1
 1400 410 l 1
 1400 264 l 1
 1133 264 l 1
 1133 401 l 1
 1435 1030 l 1
 1596 1030 l 1
1703 264 m 1
 1703 410 l 1
 1784 410 l 1
 1784 264 l 1
 1703 264 l 1
381 1618 m 1
 382 1469 l 1
 330 1450 330 1366 330 1313 c 1
 129 1313 l 1
 129 1489 214 1607 381 1618 c 1
381 784 m 1
 381 635 l 1
 214 645 129 763 129 939 c 1
 330 939 l 1
 330 886 330 802 381 784 c 1
432 635 m 1
 432 787 l 1
 472 806 475 868 475 919 c 0
 475 1010 433 1057 338 1061 c 1
 338 1203 l 1
 437 1210 475 1246 475 1336 c 0
 475 1383 471 1447 432 1467 c 1
 432 1618 l 1
 589 1607 677 1499 677 1338 c 0
 677 1242 627 1168 539 1131 c 1
 626 1092 677 1014 677 919 c 0
 677 755 589 647 432 635 c 1
EndSplineSet
EndChar

StartChar: uni00B2
Encoding: 135 178 156
Width: 711
Flags: W
LayerCount: 2
Fore
SplineSet
330 1567 m 1
 330 1416 l 1
 282 1395 282 1314 282 1262 c 1
 77 1262 l 1
 77 1439 163 1556 330 1567 c 1
253 584 m 1
 362 732 l 1
 624 732 l 1
 624 584 l 1
 253 584 l 1
190 584 m 1
 77 584 l 1
 77 721 l 1
 169 839 423 1162 423 1285 c 0
 423 1333 420 1398 380 1416 c 1
 380 1567 l 1
 539 1558 627 1452 627 1285 c 0
 627 1198 555 1079 483 981 c 2
 190 584 l 1
EndSplineSet
EndChar

StartChar: registered
Encoding: 131 174 157
Width: 1565
Flags: W
LayerCount: 2
Fore
SplineSet
803 -12 m 1
 803 143 l 1
 1103 157 1296 423 1296 705 c 0
 1296 986 1101 1252 803 1268 c 1
 803 1428 l 1
 1196 1413 1474 1082 1474 708 c 0
 1474 334 1196 2 803 -12 c 1
753 143 m 1
 753 -12 l 1
 359 1 79 333 79 708 c 0
 79 1084 358 1417 753 1429 c 1
 753 1269 l 1
 451 1257 255 989 255 705 c 0
 255 423 453 157 753 143 c 1
738 664 m 1
 738 772 l 1
 839 775 880 802 880 906 c 0
 880 983 850 1037 756 1037 c 2
 738 1037 l 1
 738 1164 l 1
 770 1164 l 2
 964 1164 1045 1066 1045 903 c 0
 1045 811 997 738 914 698 c 1
 1060 281 l 1
 885 281 l 1
 765 664 l 1
 738 664 l 1
688 281 m 1
 527 281 l 1
 527 1164 l 1
 688 1164 l 1
 688 281 l 1
EndSplineSet
EndChar

StartChar: eth
Encoding: 197 240 158
Width: 1150
Flags: W
LayerCount: 2
Fore
SplineSet
433 0 m 1
 116 0 l 1
 116 809 l 1
 21 809 l 1
 21 1008 l 1
 116 1008 l 1
 116 1782 l 1
 433 1782 l 1
 433 1008 l 1
 574 1008 l 1
 574 809 l 1
 433 809 l 1
 433 0 l 1
483 0 m 1
 483 225 l 1
 497 225 l 2
 687 225 740 272 740 437 c 2
 740 1362 l 2
 740 1503 665 1556 494 1556 c 2
 483 1556 l 1
 483 1782 l 1
 495 1782 l 2
 944 1782 1056 1596 1056 1215 c 2
 1056 600 l 2
 1056 212 970 0 492 0 c 2
 483 0 l 1
EndSplineSet
EndChar

StartChar: multiply
Encoding: 172 215 159
Width: 794
Flags: W
LayerCount: 2
Fore
SplineSet
62 455 m 1
 255 649 l 1
 62 842 l 1
 195 976 l 1
 389 782 l 1
 583 976 l 1
 716 842 l 1
 522 649 l 1
 572 598 660 509 716 455 c 1
 583 322 l 1
 389 516 l 1
 195 322 l 1
 62 455 l 1
EndSplineSet
EndChar

StartChar: uni00B3
Encoding: 136 179 160
Width: 816
Flags: W
LayerCount: 2
Fore
SplineSet
381 1618 m 1
 382 1469 l 1
 330 1450 330 1366 330 1313 c 1
 129 1313 l 1
 129 1489 214 1607 381 1618 c 1
381 784 m 1
 381 635 l 1
 214 645 129 763 129 939 c 1
 330 939 l 1
 330 886 330 802 381 784 c 1
432 635 m 1
 432 787 l 1
 472 806 475 868 475 919 c 0
 475 1010 433 1057 338 1061 c 1
 338 1203 l 1
 437 1210 475 1246 475 1336 c 0
 475 1383 471 1447 432 1467 c 1
 432 1618 l 1
 589 1607 677 1499 677 1338 c 0
 677 1242 627 1168 539 1131 c 1
 626 1092 677 1014 677 919 c 0
 677 755 589 647 432 635 c 1
EndSplineSet
EndChar

StartChar: copyright
Encoding: 126 169 161
Width: 1565
Flags: W
LayerCount: 2
Fore
SplineSet
806 1044 m 1
 806 1198 l 1
 1020 1188 1065 996 1065 846 c 1
 880 846 l 1
 879 909 877 1027 806 1044 c 1
806 221 m 1
 806 379 l 1
 879 402 881 521 881 590 c 1
 1064 590 l 1
 1064 423 1004 236 806 221 c 1
756 377 m 1
 756 221 l 1
 490 235 485 484 485 705 c 0
 485 933 489 1180 756 1197 c 1
 756 1043 l 1
 683 1027 658 942 658 716 c 0
 658 455 687 388 756 377 c 1
756 142 m 1
 756 -12 l 1
 359 -1 79 331 79 708 c 0
 79 1085 360 1418 756 1429 c 1
 756 1269 l 1
 453 1258 255 990 255 705 c 0
 255 421 453 154 756 142 c 1
806 -11 m 1
 806 143 l 1
 1102 160 1296 425 1296 705 c 0
 1296 985 1102 1250 806 1268 c 1
 806 1428 l 1
 1198 1411 1474 1081 1474 708 c 0
 1474 335 1197 5 806 -11 c 1
EndSplineSet
EndChar

StartChar: uni00AD
Encoding: 130 173 223
Width: 772
Flags: W
LayerCount: 2
Fore
SplineSet
136 436 m 1
 136 660 l 1
 655 660 l 1
 655 436 l 1
 136 436 l 1
EndSplineSet
EndChar

StartChar: Hbar
Encoding: 249 294 224
Width: 1170
Flags: W
LayerCount: 2
Fore
SplineSet
473 1334 m 1
 473 1444 l 1
 744 1444 l 1
 744 1782 l 1
 1063 1782 l 1
 1063 0 l 1
 744 0 l 1
 744 810 l 1
 473 810 l 1
 473 1035 l 1
 744 1035 l 1
 744 1334 l 1
 473 1334 l 1
423 0 m 1
 107 0 l 1
 107 1782 l 1
 423 1782 l 1
 423 0 l 1
EndSplineSet
EndChar

StartChar: Euro
Encoding: 399 8364 228
Width: 1052
Flags: W
LayerCount: 2
Fore
SplineSet
563 1390 m 1
 563 1618 l 1
 870 1602 959 1361 962 1078 c 1
 962 1058 l 1
 711 1058 l 1
 711 1086 l 2
 711 1200 687 1369 563 1390 c 1
563 -27 m 1
 563 206 l 1
 703 222 718 424 718 547 c 2
 718 578 l 1
 966 578 l 1
 966 553 l 1
 965 265 892 -14 563 -27 c 1
512 207 m 1
 512 -26 l 1
 193 -14 106 218 96 504 c 1
 96 554 l 1
 15 554 l 1
 15 727 l 1
 95 727 l 1
 95 855 l 1
 15 855 l 1
 15 1028 l 1
 98 1028 l 1
 98 1081 l 1
 109 1365 192 1608 512 1619 c 1
 513 1391 l 1
 359 1378 351 1224 351 1088 c 2
 351 1028 l 1
 512 1028 l 1
 512 855 l 1
 351 855 l 1
 351 727 l 1
 512 727 l 1
 512 554 l 1
 353 554 l 1
 353 499 l 1
 358 372 376 226 512 207 c 1
EndSplineSet
EndChar

StartChar: foundryicon
Encoding: 419 -1 231
Width: 1562
Flags: W
LayerCount: 2
Fore
SplineSet
318 277 m 1
 486 819 l 1
 27 1168 l 1
 599 1168 l 1
 777 1710 l 1
 965 1168 l 1
 1537 1168 l 1
 1076 819 l 1
 1246 277 l 1
 777 604 l 1
 318 277 l 1
EndSplineSet
EndChar

StartChar: uni0311
Encoding: 378 785 233
Width: 730
Flags: W
LayerCount: 2
Fore
SplineSet
252 1410 m 1
 94 1410 l 1
 96 1574 213 1663 352 1663 c 0
 491 1663 608 1574 610 1410 c 1
 452 1410 l 1
 447 1479 416 1544 352 1544 c 0
 288 1544 257 1479 252 1410 c 1
EndSplineSet
EndChar

StartChar: uni030F
Encoding: 377 783 234
Width: 913
Flags: W
LayerCount: 2
Fore
SplineSet
615 1406 m 1
 402 1819 l 1
 657 1819 l 1
 787 1406 l 1
 615 1406 l 1
316 1406 m 1
 103 1819 l 1
 360 1819 l 1
 490 1406 l 1
 316 1406 l 1
EndSplineSet
EndChar

StartChar: uni0307
Encoding: 376 775 235
Width: 410
Flags: W
LayerCount: 2
Fore
SplineSet
113 1380 m 1
 113 1559 l 1
 297 1559 l 1
 297 1380 l 1
 113 1380 l 1
EndSplineSet
EndChar

StartChar: kgreenlandic
Encoding: 267 312 240
Width: 1147
Flags: W
LayerCount: 2
Fore
SplineSet
482 857 m 1
 482 1094 l 1
 754 1782 l 1
 1105 1782 l 1
 741 981 l 1
 1144 0 l 1
 815 0 l 1
 482 857 l 1
432 0 m 1
 116 0 l 1
 116 1782 l 1
 432 1782 l 1
 432 0 l 1
EndSplineSet
EndChar

StartChar: uni0237
Encoding: 367 567 241
Width: 612
Flags: W
LayerCount: 2
Fore
SplineSet
3 -26 m 1
 3 198 l 1
 149 198 181 226 181 429 c 2
 181 1782 l 1
 497 1782 l 1
 497 427 l 2
 497 123 440 -26 99 -26 c 2
 3 -26 l 1
EndSplineSet
EndChar

StartChar: uni0326
Encoding: 379 806 248
Width: 1122
Flags: HW
LayerCount: 2
Fore
SplineSet
478 -613 m 1
 441 -472 l 1
 517 -464 526 -443 527 -367 c 1
 413 -367 l 1
 413 -80 l 1
 705 -80 l 1
 705 -128 706 -174 706 -217 c 0
 706 -459 684 -611 478 -613 c 1
EndSplineSet
EndChar

StartChar: commaaccent
Encoding: 420 63171 250
Width: 505
Flags: W
LayerCount: 2
Fore
SplineSet
165 -613 m 1
 128 -472 l 1
 204 -464 213 -443 214 -367 c 1
 100 -367 l 1
 100 -80 l 1
 392 -80 l 1
 392 -128 393 -174 393 -217 c 0
 393 -459 371 -611 165 -613 c 1
EndSplineSet
EndChar

StartChar: hbar
Encoding: 250 295 262
Width: 1170
Flags: W
LayerCount: 2
Fore
SplineSet
473 1334 m 1
 473 1444 l 1
 744 1444 l 1
 744 1782 l 1
 1063 1782 l 1
 1063 0 l 1
 744 0 l 1
 744 810 l 1
 473 810 l 1
 473 1035 l 1
 744 1035 l 1
 744 1334 l 1
 473 1334 l 1
423 0 m 1
 107 0 l 1
 107 1782 l 1
 423 1782 l 1
 423 0 l 1
EndSplineSet
EndChar

